<svg width="64" height="64" viewBox="0 0 64 64" fill="none" xmlns="http://www.w3.org/2000/svg">
<path d="M31.5723 54.164C27.2383 54.164 23.0017 52.8788 19.3981 50.471C15.7945 48.0631 12.9858 44.6408 11.3273 40.6367C9.66875 36.6326 9.2348 32.2266 10.0803 27.9759C10.9258 23.7252 13.0129 19.8207 16.0774 16.7561C19.142 13.6915 23.0466 11.6045 27.2973 10.7589C31.548 9.91342 35.954 10.3474 39.9581 12.0059C43.9622 13.6645 47.3845 16.4731 49.7923 20.0767C52.2002 23.6803 53.4854 27.9169 53.4854 32.2509L31.5723 32.2509L31.5723 54.164Z" fill="#405ED1"/>
<g filter="url(#filter0_b_40_116278)">
<mask id="path-2-inside-1_40_116278" fill="white">
<path d="M0.0722656 32.25C0.0722656 38.4801 1.91971 44.5703 5.38097 49.7505C8.84224 54.9306 13.7619 58.968 19.5177 61.3522C25.2736 63.7364 31.6072 64.3602 37.7176 63.1447C43.828 61.9293 49.4408 58.9292 53.8461 54.5239C58.2515 50.1185 61.2516 44.5057 62.467 38.3953C63.6824 32.2849 63.0586 25.9513 60.6745 20.1955C58.2903 14.4396 54.2529 9.51997 49.0727 6.05871C43.8926 2.59744 37.8024 0.75 31.5723 0.75V32.25H0.0722656Z"/>
</mask>
<path d="M0.0722656 32.25C0.0722656 38.4801 1.91971 44.5703 5.38097 49.7505C8.84224 54.9306 13.7619 58.968 19.5177 61.3522C25.2736 63.7364 31.6072 64.3602 37.7176 63.1447C43.828 61.9293 49.4408 58.9292 53.8461 54.5239C58.2515 50.1185 61.2516 44.5057 62.467 38.3953C63.6824 32.2849 63.0586 25.9513 60.6745 20.1955C58.2903 14.4396 54.2529 9.51997 49.0727 6.05871C43.8926 2.59744 37.8024 0.75 31.5723 0.75V32.25H0.0722656Z" fill="#E0E9FF" fill-opacity="0.1"/>
<path d="M0.0722656 32.25C0.0722656 38.4801 1.91971 44.5703 5.38097 49.7505C8.84224 54.9306 13.7619 58.968 19.5177 61.3522C25.2736 63.7364 31.6072 64.3602 37.7176 63.1447C43.828 61.9293 49.4408 58.9292 53.8461 54.5239C58.2515 50.1185 61.2516 44.5057 62.467 38.3953C63.6824 32.2849 63.0586 25.9513 60.6745 20.1955C58.2903 14.4396 54.2529 9.51997 49.0727 6.05871C43.8926 2.59744 37.8024 0.75 31.5723 0.75V32.25H0.0722656Z" stroke="white" stroke-opacity="0.2" stroke-width="2" mask="url(#path-2-inside-1_40_116278)"/>
</g>
<defs>
<filter id="filter0_b_40_116278" x="-3.92773" y="-3.25" width="71" height="71" filterUnits="userSpaceOnUse" color-interpolation-filters="sRGB">
<feFlood flood-opacity="0" result="BackgroundImageFix"/>
<feGaussianBlur in="BackgroundImageFix" stdDeviation="2"/>
<feComposite in2="SourceAlpha" operator="in" result="effect1_backgroundBlur_40_116278"/>
<feBlend mode="normal" in="SourceGraphic" in2="effect1_backgroundBlur_40_116278" result="shape"/>
</filter>
</defs>
</svg>
