<svg width="56" height="55" viewBox="0 0 56 55" fill="none" xmlns="http://www.w3.org/2000/svg">
<rect x="0.5" width="55" height="55" fill="#010924"/>
<path d="M27.6248 16.8048C27.6248 14.2579 28.6234 11.8153 30.4009 10.0144C32.1785 8.21342 34.5894 7.20166 37.1032 7.20166C39.6171 7.20166 42.028 8.21342 43.8055 10.0144C45.5831 11.8153 46.5817 14.2579 46.5817 16.8048C46.5817 19.3518 45.5831 21.7944 43.8055 23.5953C42.028 25.3962 39.6171 26.408 37.1032 26.408C34.5894 26.408 32.1785 25.3962 30.4009 23.5953C28.6234 21.7944 27.6248 19.3518 27.6248 16.8048ZM20.5159 43.3861C20.5159 35.9962 26.4252 30.0092 33.7191 30.0092H40.4873C47.7813 30.0092 53.6905 35.9962 53.6905 43.3861C53.6905 44.6165 52.7057 45.6144 51.4912 45.6144H22.7152C21.5008 45.6144 20.5159 44.6165 20.5159 43.3861Z" fill="#405ED1"/>
<g filter="url(#filter0_b_335_35426)">
<path d="M16.9 15.9317C16.9 12.9217 18.1089 10.035 20.2606 7.90663C22.4124 5.77824 25.3308 4.58252 28.3739 4.58252C31.417 4.58252 34.3354 5.77824 36.4872 7.90663C38.639 10.035 39.8478 12.9217 39.8478 15.9317C39.8478 18.9417 38.639 21.8284 36.4872 23.9568C34.3354 26.0852 31.417 27.2809 28.3739 27.2809C25.3308 27.2809 22.4124 26.0852 20.2606 23.9568C18.1089 21.8284 16.9 18.9417 16.9 15.9317ZM8.29456 47.346C8.29456 38.6124 15.4478 31.5369 24.2774 31.5369H32.4705C41.3 31.5369 48.4533 38.6124 48.4533 47.346C48.4533 48.8001 47.2611 49.9793 45.791 49.9793H10.9569C9.48677 49.9793 8.29456 48.8001 8.29456 47.346Z" fill="#E0E9FF" fill-opacity="0.1"/>
<path d="M17.4 15.9317C17.4 13.0561 18.5548 10.2972 20.6122 8.26211C22.6698 6.22687 25.4617 5.08252 28.3739 5.08252C31.2861 5.08252 34.078 6.22687 36.1356 8.2621C38.193 10.2972 39.3478 13.0561 39.3478 15.9317C39.3478 18.8073 38.193 21.5663 36.1356 23.6013C34.078 25.6366 31.2861 26.7809 28.3739 26.7809C25.4617 26.7809 22.6698 25.6366 20.6122 23.6013C18.5548 21.5663 17.4 18.8073 17.4 15.9317ZM8.79456 47.346C8.79456 38.8937 15.7188 32.0369 24.2774 32.0369H32.4705C41.029 32.0369 47.9533 38.8937 47.9533 47.346C47.9533 48.5188 46.9901 49.4793 45.791 49.4793H10.9569C9.75775 49.4793 8.79456 48.5188 8.79456 47.346Z" stroke="#9FAEFF" stroke-opacity="0.2"/>
</g>
<defs>
<filter id="filter0_b_335_35426" x="3.29456" y="-0.41748" width="50.1588" height="55.397" filterUnits="userSpaceOnUse" color-interpolation-filters="sRGB">
<feFlood flood-opacity="0" result="BackgroundImageFix"/>
<feGaussianBlur in="BackgroundImageFix" stdDeviation="2.5"/>
<feComposite in2="SourceAlpha" operator="in" result="effect1_backgroundBlur_335_35426"/>
<feBlend mode="normal" in="SourceGraphic" in2="effect1_backgroundBlur_335_35426" result="shape"/>
</filter>
</defs>
</svg>
