<svg width="64" height="73" viewBox="0 0 64 73" fill="none" xmlns="http://www.w3.org/2000/svg">
<g filter="url(#filter0_b_40_116284)">
<path d="M24.1962 26.3999C24.0088 23.7702 24.5448 21.1394 25.7461 18.7926C26.9474 16.4458 28.7682 14.4726 31.011 13.0869C33.2539 11.7012 35.8332 10.9559 38.4695 10.9317C41.1057 10.9075 43.6984 11.6054 45.9662 12.9497C48.2341 14.294 50.0908 16.2334 51.335 18.5577C52.5792 20.8821 53.1634 23.5026 53.0243 26.1353C52.8852 28.768 52.0282 31.3125 50.546 33.4928C49.0639 35.6731 47.0132 37.4061 44.6163 38.504" stroke="#4E8380" stroke-width="5"/>
</g>
<g filter="url(#filter1_b_40_116284)">
<circle cx="24.6527" cy="24.6527" r="24.6527" transform="matrix(-1 0 0 1 63.4053 0.250488)" fill="#E0E9FF" fill-opacity="0.1"/>
<circle cx="24.6527" cy="24.6527" r="24.1527" transform="matrix(-1 0 0 1 63.4053 0.250488)" stroke="white" stroke-opacity="0.2"/>
</g>
<path d="M40.4472 25.1403C40.1488 24.6235 39.6574 24.2465 39.0811 24.092C38.5047 23.9376 37.8906 24.0185 37.3739 24.3168L8.01968 41.2644C6.94294 41.8861 6.57454 43.261 7.1962 44.3378C7.47742 44.8249 7.86807 45.1462 8.31686 45.3315L15.1176 47.9339L8.29414 57.5477C7.79436 58.2807 7.78381 59.2097 8.21306 59.9531C8.37587 60.2352 8.53868 60.5172 8.90659 60.6808L16.2733 65.8619C17.2972 66.5697 18.7429 66.3503 19.3955 65.2899L26.2298 55.6356L30.9506 61.1481C31.306 61.5088 31.7588 61.7582 32.2536 61.8656C33.4736 62.0842 34.6194 61.2859 34.8448 59.9594L40.7514 26.6738L40.711 26.6629C40.8066 26.1402 40.7131 25.6004 40.4472 25.1403Z" fill="#2C6659"/>
<path d="M40.0142 25.3903L40.0143 25.3905C40.2208 25.7478 40.2934 26.167 40.2191 26.5729L40.1362 27.0265L40.179 27.038L34.3525 59.872L34.3519 59.8756C34.1714 60.9378 33.2812 61.5369 32.3507 61.375C31.9598 61.2883 31.6017 61.0919 31.3184 60.8089L26.6096 55.3104L26.1923 54.8232L25.8217 55.3468L18.9874 65.001L18.9781 65.0142L18.9696 65.0279C18.4854 65.8148 17.376 66.0151 16.5592 65.4517C16.5586 65.4513 16.5581 65.451 16.5576 65.4506L9.19423 60.2718L9.15432 60.2437L9.10974 60.2239C8.90651 60.1335 8.81281 59.992 8.64607 59.7031C8.30963 59.1204 8.32001 58.4003 8.70477 57.8331L15.5254 48.2233L15.8986 47.6974L15.2963 47.4669L8.50192 44.867C8.15533 44.7226 7.85293 44.4753 7.62921 44.0878C7.14562 43.2502 7.43208 42.1811 8.26968 41.6975L37.6239 24.7498C38.0258 24.5178 38.5034 24.4549 38.9517 24.575C39.3999 24.6951 39.7821 24.9884 40.0142 25.3903Z" stroke="#6FB7A7" stroke-opacity="0.5"/>
<defs>
<filter id="filter0_b_40_116284" x="17.6592" y="4.43115" width="41.8848" height="40.3457" filterUnits="userSpaceOnUse" color-interpolation-filters="sRGB">
<feFlood flood-opacity="0" result="BackgroundImageFix"/>
<feGaussianBlur in="BackgroundImageFix" stdDeviation="2"/>
<feComposite in2="SourceAlpha" operator="in" result="effect1_backgroundBlur_40_116284"/>
<feBlend mode="normal" in="SourceGraphic" in2="effect1_backgroundBlur_40_116284" result="shape"/>
</filter>
<filter id="filter1_b_40_116284" x="10.0996" y="-3.74951" width="57.3057" height="57.3052" filterUnits="userSpaceOnUse" color-interpolation-filters="sRGB">
<feFlood flood-opacity="0" result="BackgroundImageFix"/>
<feGaussianBlur in="BackgroundImageFix" stdDeviation="2"/>
<feComposite in2="SourceAlpha" operator="in" result="effect1_backgroundBlur_40_116284"/>
<feBlend mode="normal" in="SourceGraphic" in2="effect1_backgroundBlur_40_116284" result="shape"/>
</filter>
</defs>
</svg>
