<svg width="578" height="328" viewBox="0 0 578 328" fill="none" xmlns="http://www.w3.org/2000/svg">
<rect x="136.66" y="36.3789" width="357.699" height="288.602" rx="14" fill="#010924" fill-opacity="0.7" stroke="url(#paint0_linear_40_116161)" stroke-width="5"/>
<rect x="237.66" y="93.7031" width="51.1468" height="207.1" rx="12" fill="url(#paint1_linear_40_116161)" fill-opacity="0.5"/>
<rect x="241.188" y="208.123" width="44.533" height="7.11183" rx="3.55592" fill="url(#paint2_linear_40_116161)"/>
<rect x="241.188" y="223.881" width="44.533" height="7.11183" rx="3.55592" fill="url(#paint3_linear_40_116161)"/>
<rect x="241.188" y="239.076" width="44.533" height="7.11183" rx="3.55592" fill="url(#paint4_linear_40_116161)"/>
<rect x="241.188" y="254.27" width="44.533" height="7.11183" rx="3.55592" fill="url(#paint5_linear_40_116161)"/>
<rect x="241.188" y="268.904" width="44.533" height="7.11183" rx="3.55592" fill="url(#paint6_linear_40_116161)"/>
<rect x="241.188" y="284.096" width="44.533" height="7.11183" rx="3.55592" fill="url(#paint7_linear_40_116161)"/>
<rect x="290.57" y="93.7031" width="51.1468" height="207.1" rx="12" fill="black" fill-opacity="0.2"/>
<rect x="293.656" y="192.754" width="44.533" height="6.75325" rx="3.37663" fill="url(#paint8_linear_40_116161)"/>
<rect x="293.656" y="147.168" width="44.533" height="6.75325" rx="3.37663" fill="url(#paint9_linear_40_116161)"/>
<rect x="293.656" y="162.361" width="44.533" height="6.75325" rx="3.37663" fill="url(#paint10_linear_40_116161)"/>
<rect x="293.656" y="117.338" width="44.533" height="6.75325" rx="3.37663" fill="url(#paint11_linear_40_116161)"/>
<rect x="293.656" y="102.148" width="44.533" height="6.75325" rx="3.37663" fill="url(#paint12_linear_40_116161)"/>
<rect x="293.656" y="208.508" width="44.533" height="6.75325" rx="3.37663" fill="url(#paint13_linear_40_116161)"/>
<rect x="293.656" y="238.896" width="44.533" height="6.75325" rx="3.37663" fill="url(#paint14_linear_40_116161)"/>
<rect x="293.656" y="283.922" width="44.533" height="6.75325" rx="3.37663" fill="url(#paint15_linear_40_116161)"/>
<rect x="343.48" y="93.7031" width="51.1468" height="207.1" rx="12" fill="url(#paint16_linear_40_116161)" fill-opacity="0.6"/>
<rect x="391.1" y="185.229" width="44.533" height="7.11183" rx="3.55592" transform="rotate(-180 391.1 185.229)" fill="url(#paint17_linear_40_116161)"/>
<rect x="391.1" y="169.473" width="44.533" height="7.11183" rx="3.55592" transform="rotate(-180 391.1 169.473)" fill="url(#paint18_linear_40_116161)"/>
<rect x="391.1" y="154.275" width="44.533" height="7.11183" rx="3.55592" transform="rotate(-180 391.1 154.275)" fill="url(#paint19_linear_40_116161)"/>
<rect x="391.1" y="139.645" width="44.533" height="7.11183" rx="3.55592" transform="rotate(-180 391.1 139.645)" fill="url(#paint20_linear_40_116161)"/>
<rect x="391.1" y="124.445" width="44.533" height="7.11183" rx="3.55592" transform="rotate(-180 391.1 124.445)" fill="url(#paint21_linear_40_116161)"/>
<rect x="391.1" y="109.256" width="44.533" height="7.11183" rx="3.55592" transform="rotate(-180 391.1 109.256)" fill="url(#paint22_linear_40_116161)"/>
<rect x="189.158" y="173.055" width="150.795" height="15.7576" rx="4" fill="#296C34" fill-opacity="0.3"/>
<rect x="189.158" y="128.033" width="150.795" height="15.7576" rx="4" fill="#296C34" fill-opacity="0.3"/>
<rect x="293.656" y="177.555" width="44.533" height="6.75325" rx="3.37663" fill="url(#paint23_linear_40_116161)"/>
<rect x="293.656" y="254.096" width="44.533" height="6.75325" rx="3.37663" fill="url(#paint24_linear_40_116161)"/>
<rect x="191.803" y="175.867" width="42.3284" height="10.1299" rx="3" fill="url(#paint25_linear_40_116161)"/>
<rect x="191.803" y="130.846" width="42.3284" height="10.1299" rx="3" fill="url(#paint26_linear_40_116161)"/>
<rect x="442.688" y="280.539" width="150.795" height="15.7576" rx="4" transform="rotate(-180 442.688 280.539)" fill="#6C2929" fill-opacity="0.3"/>
<rect x="440.043" y="277.725" width="42.3284" height="10.1299" rx="3" transform="rotate(-180 440.043 277.725)" fill="url(#paint27_linear_40_116161)"/>
<rect x="442.688" y="235.52" width="150.795" height="15.7576" rx="4" transform="rotate(-180 442.688 235.52)" fill="#6C2929" fill-opacity="0.3"/>
<rect x="440.043" y="232.705" width="42.3284" height="10.1299" rx="3" transform="rotate(-180 440.043 232.705)" fill="url(#paint28_linear_40_116161)"/>
<rect x="293.656" y="132.535" width="44.533" height="6.75325" rx="3.37663" fill="url(#paint29_linear_40_116161)"/>
<rect x="293.656" y="269.291" width="44.533" height="6.75325" rx="3.37663" fill="url(#paint30_linear_40_116161)"/>
<rect x="293.656" y="223.703" width="44.533" height="6.75325" rx="3.37663" fill="url(#paint31_linear_40_116161)"/>
<rect x="97.5098" y="95.2109" width="56.0573" height="20.7556" rx="4" fill="#211C4F"/>
<rect x="98.0098" y="95.7109" width="55.0573" height="19.7556" rx="3.5" stroke="white" stroke-opacity="0.2"/>
<path d="M116.861 109.166C116.15 109.166 115.501 109.001 114.914 108.671C114.327 108.334 113.862 107.868 113.517 107.274C113.18 106.673 113.011 105.998 113.011 105.25C113.011 104.502 113.18 103.831 113.517 103.237C113.862 102.636 114.327 102.17 114.914 101.84C115.501 101.503 116.15 101.334 116.861 101.334C117.58 101.334 118.232 101.503 118.819 101.84C119.406 102.17 119.868 102.632 120.205 103.226C120.542 103.82 120.711 104.495 120.711 105.25C120.711 106.005 120.542 106.68 120.205 107.274C119.868 107.868 119.406 108.334 118.819 108.671C118.232 109.001 117.58 109.166 116.861 109.166ZM116.861 108.297C117.396 108.297 117.877 108.172 118.302 107.923C118.735 107.674 119.072 107.318 119.314 106.856C119.563 106.394 119.688 105.859 119.688 105.25C119.688 104.634 119.563 104.099 119.314 103.644C119.072 103.182 118.738 102.826 118.313 102.577C117.888 102.328 117.404 102.203 116.861 102.203C116.318 102.203 115.834 102.328 115.409 102.577C114.984 102.826 114.646 103.182 114.397 103.644C114.155 104.099 114.034 104.634 114.034 105.25C114.034 105.859 114.155 106.394 114.397 106.856C114.646 107.318 114.984 107.674 115.409 107.923C115.842 108.172 116.326 108.297 116.861 108.297ZM121.549 105.25C121.549 104.502 121.717 103.831 122.055 103.237C122.392 102.636 122.85 102.166 123.43 101.829C124.016 101.492 124.665 101.323 125.377 101.323C126.213 101.323 126.942 101.525 127.566 101.928C128.189 102.331 128.644 102.903 128.93 103.644H127.731C127.518 103.182 127.21 102.826 126.807 102.577C126.411 102.328 125.934 102.203 125.377 102.203C124.841 102.203 124.361 102.328 123.936 102.577C123.51 102.826 123.177 103.182 122.935 103.644C122.693 104.099 122.572 104.634 122.572 105.25C122.572 105.859 122.693 106.394 122.935 106.856C123.177 107.311 123.51 107.663 123.936 107.912C124.361 108.161 124.841 108.286 125.377 108.286C125.934 108.286 126.411 108.165 126.807 107.923C127.21 107.674 127.518 107.318 127.731 106.856H128.93C128.644 107.589 128.189 108.158 127.566 108.561C126.942 108.957 126.213 109.155 125.377 109.155C124.665 109.155 124.016 108.99 123.43 108.66C122.85 108.323 122.392 107.857 122.055 107.263C121.717 106.669 121.549 105.998 121.549 105.25ZM133.786 109.166C133.074 109.166 132.425 109.001 131.839 108.671C131.252 108.334 130.786 107.868 130.442 107.274C130.104 106.673 129.936 105.998 129.936 105.25C129.936 104.502 130.104 103.831 130.442 103.237C130.786 102.636 131.252 102.17 131.839 101.84C132.425 101.503 133.074 101.334 133.786 101.334C134.504 101.334 135.157 101.503 135.744 101.84C136.33 102.17 136.792 102.632 137.13 103.226C137.467 103.82 137.636 104.495 137.636 105.25C137.636 106.005 137.467 106.68 137.13 107.274C136.792 107.868 136.33 108.334 135.744 108.671C135.157 109.001 134.504 109.166 133.786 109.166ZM133.786 108.297C134.321 108.297 134.801 108.172 135.227 107.923C135.659 107.674 135.997 107.318 136.239 106.856C136.488 106.394 136.613 105.859 136.613 105.25C136.613 104.634 136.488 104.099 136.239 103.644C135.997 103.182 135.663 102.826 135.238 102.577C134.812 102.328 134.328 102.203 133.786 102.203C133.243 102.203 132.759 102.328 132.334 102.577C131.908 102.826 131.571 103.182 131.322 103.644C131.08 104.099 130.959 104.634 130.959 105.25C130.959 105.859 131.08 106.394 131.322 106.856C131.571 107.318 131.908 107.674 132.334 107.923C132.766 108.172 133.25 108.297 133.786 108.297Z" fill="white"/>
<rect x="455.994" y="167.957" width="86.3105" height="20.4654" rx="4" fill="#3F1C4F"/>
<rect x="456.494" y="168.457" width="85.3105" height="19.4654" rx="3.5" stroke="white" stroke-opacity="0.2"/>
<path d="M474.773 174.078V181.69H473.772V176.014L471.242 181.69H470.538L467.997 176.003V181.69H466.996V174.078H468.074L470.89 180.37L473.706 174.078H474.773ZM481.707 175.662V181.69H480.706V180.799C480.515 181.107 480.248 181.349 479.903 181.525C479.566 181.694 479.192 181.778 478.781 181.778C478.312 181.778 477.89 181.683 477.516 181.492C477.142 181.294 476.845 181.001 476.625 180.612C476.412 180.223 476.306 179.75 476.306 179.193V175.662H477.296V179.061C477.296 179.655 477.446 180.113 477.747 180.436C478.048 180.751 478.458 180.909 478.979 180.909C479.514 180.909 479.936 180.744 480.244 180.414C480.552 180.084 480.706 179.604 480.706 178.973V175.662H481.707ZM484.288 173.55V181.69H483.287V173.55H484.288ZM487.105 176.487V180.04C487.105 180.333 487.168 180.542 487.292 180.667C487.417 180.784 487.633 180.843 487.941 180.843H488.678V181.69H487.776C487.219 181.69 486.801 181.562 486.522 181.305C486.244 181.048 486.104 180.627 486.104 180.04V176.487H485.323V175.662H486.104V174.144H487.105V175.662H488.678V176.487H487.105ZM490.298 174.683C490.107 174.683 489.946 174.617 489.814 174.485C489.682 174.353 489.616 174.192 489.616 174.001C489.616 173.81 489.682 173.649 489.814 173.517C489.946 173.385 490.107 173.319 490.298 173.319C490.481 173.319 490.635 173.385 490.76 173.517C490.892 173.649 490.958 173.81 490.958 174.001C490.958 174.192 490.892 174.353 490.76 174.485C490.635 174.617 490.481 174.683 490.298 174.683ZM490.782 175.662V181.69H489.781V175.662H490.782ZM496.202 180.876H498.886V181.69H495.201V174.023H496.202V180.876ZM499.465 178.654C499.465 178.038 499.589 177.499 499.839 177.037C500.088 176.568 500.429 176.205 500.862 175.948C501.302 175.691 501.789 175.563 502.325 175.563C502.853 175.563 503.311 175.677 503.7 175.904C504.088 176.131 504.378 176.417 504.569 176.762V175.662H505.581V181.69H504.569V180.568C504.371 180.92 504.074 181.213 503.678 181.448C503.289 181.675 502.834 181.789 502.314 181.789C501.778 181.789 501.294 181.657 500.862 181.393C500.429 181.129 500.088 180.759 499.839 180.282C499.589 179.805 499.465 179.263 499.465 178.654ZM504.569 178.665C504.569 178.21 504.477 177.814 504.294 177.477C504.11 177.14 503.861 176.883 503.546 176.707C503.238 176.524 502.897 176.432 502.523 176.432C502.149 176.432 501.808 176.52 501.5 176.696C501.192 176.872 500.946 177.129 500.763 177.466C500.579 177.803 500.488 178.199 500.488 178.654C500.488 179.116 500.579 179.519 500.763 179.864C500.946 180.201 501.192 180.462 501.5 180.645C501.808 180.821 502.149 180.909 502.523 180.909C502.897 180.909 503.238 180.821 503.546 180.645C503.861 180.462 504.11 180.201 504.294 179.864C504.477 179.519 504.569 179.12 504.569 178.665ZM506.788 178.654C506.788 178.038 506.913 177.499 507.162 177.037C507.412 176.568 507.753 176.205 508.185 175.948C508.625 175.691 509.117 175.563 509.659 175.563C510.129 175.563 510.565 175.673 510.968 175.893C511.372 176.106 511.68 176.388 511.892 176.74V173.55H512.904V181.69H511.892V180.557C511.694 180.916 511.401 181.213 511.012 181.448C510.624 181.675 510.169 181.789 509.648 181.789C509.113 181.789 508.625 181.657 508.185 181.393C507.753 181.129 507.412 180.759 507.162 180.282C506.913 179.805 506.788 179.263 506.788 178.654ZM511.892 178.665C511.892 178.21 511.801 177.814 511.617 177.477C511.434 177.14 511.185 176.883 510.869 176.707C510.561 176.524 510.22 176.432 509.846 176.432C509.472 176.432 509.131 176.52 508.823 176.696C508.515 176.872 508.27 177.129 508.086 177.466C507.903 177.803 507.811 178.199 507.811 178.654C507.811 179.116 507.903 179.519 508.086 179.864C508.27 180.201 508.515 180.462 508.823 180.645C509.131 180.821 509.472 180.909 509.846 180.909C510.22 180.909 510.561 180.821 510.869 180.645C511.185 180.462 511.434 180.201 511.617 179.864C511.801 179.519 511.892 179.12 511.892 178.665ZM514.112 178.654C514.112 178.038 514.237 177.499 514.486 177.037C514.735 176.568 515.076 176.205 515.509 175.948C515.949 175.691 516.44 175.563 516.983 175.563C517.452 175.563 517.889 175.673 518.292 175.893C518.695 176.106 519.003 176.388 519.216 176.74V173.55H520.228V181.69H519.216V180.557C519.018 180.916 518.725 181.213 518.336 181.448C517.947 181.675 517.493 181.789 516.972 181.789C516.437 181.789 515.949 181.657 515.509 181.393C515.076 181.129 514.735 180.759 514.486 180.282C514.237 179.805 514.112 179.263 514.112 178.654ZM519.216 178.665C519.216 178.21 519.124 177.814 518.941 177.477C518.758 177.14 518.508 176.883 518.193 176.707C517.885 176.524 517.544 176.432 517.17 176.432C516.796 176.432 516.455 176.52 516.147 176.696C515.839 176.872 515.593 177.129 515.41 177.466C515.227 177.803 515.135 178.199 515.135 178.654C515.135 179.116 515.227 179.519 515.41 179.864C515.593 180.201 515.839 180.462 516.147 180.645C516.455 180.821 516.796 180.909 517.17 180.909C517.544 180.909 517.885 180.821 518.193 180.645C518.508 180.462 518.758 180.201 518.941 179.864C519.124 179.519 519.216 179.12 519.216 178.665ZM527.31 178.445C527.31 178.636 527.299 178.837 527.277 179.05H522.459C522.495 179.644 522.697 180.11 523.064 180.447C523.438 180.777 523.889 180.942 524.417 180.942C524.849 180.942 525.209 180.843 525.495 180.645C525.788 180.44 525.993 180.168 526.111 179.831H527.189C527.027 180.41 526.705 180.883 526.221 181.25C525.737 181.609 525.135 181.789 524.417 181.789C523.845 181.789 523.331 181.661 522.877 181.404C522.429 181.147 522.077 180.784 521.821 180.315C521.564 179.838 521.436 179.288 521.436 178.665C521.436 178.042 521.56 177.495 521.81 177.026C522.059 176.557 522.407 176.197 522.855 175.948C523.309 175.691 523.83 175.563 524.417 175.563C524.989 175.563 525.495 175.688 525.935 175.937C526.375 176.186 526.712 176.531 526.947 176.971C527.189 177.404 527.31 177.895 527.31 178.445ZM526.276 178.236C526.276 177.855 526.191 177.528 526.023 177.257C525.854 176.978 525.623 176.769 525.33 176.63C525.044 176.483 524.725 176.41 524.373 176.41C523.867 176.41 523.434 176.571 523.075 176.894C522.723 177.217 522.521 177.664 522.47 178.236H526.276ZM529.522 176.641C529.698 176.296 529.947 176.029 530.27 175.838C530.6 175.647 530.999 175.552 531.469 175.552V176.586H531.205C530.083 176.586 529.522 177.195 529.522 178.412V181.69H528.521V175.662H529.522V176.641Z" fill="white"/>
<rect x="469.445" y="280.287" width="108.555" height="20.4654" rx="4" fill="#433918"/>
<rect x="469.945" y="280.787" width="107.555" height="19.4654" rx="3.5" stroke="white" stroke-opacity="0.2"/>
<path d="M479.501 294.097C478.995 294.097 478.54 294.009 478.137 293.833C477.741 293.65 477.429 293.4 477.202 293.085C476.974 292.762 476.857 292.392 476.85 291.974H477.917C477.953 292.333 478.1 292.638 478.357 292.887C478.621 293.129 479.002 293.25 479.501 293.25C479.977 293.25 480.351 293.133 480.623 292.898C480.901 292.656 481.041 292.348 481.041 291.974C481.041 291.681 480.96 291.442 480.799 291.259C480.637 291.076 480.436 290.936 480.194 290.841C479.952 290.746 479.625 290.643 479.215 290.533C478.709 290.401 478.302 290.269 477.994 290.137C477.693 290.005 477.433 289.8 477.213 289.521C477 289.235 476.894 288.854 476.894 288.377C476.894 287.959 477 287.589 477.213 287.266C477.425 286.943 477.722 286.694 478.104 286.518C478.492 286.342 478.936 286.254 479.435 286.254C480.153 286.254 480.74 286.434 481.195 286.793C481.657 287.152 481.917 287.629 481.976 288.223H480.876C480.839 287.93 480.685 287.673 480.414 287.453C480.142 287.226 479.783 287.112 479.336 287.112C478.918 287.112 478.577 287.222 478.313 287.442C478.049 287.655 477.917 287.955 477.917 288.344C477.917 288.623 477.994 288.85 478.148 289.026C478.309 289.202 478.503 289.338 478.731 289.433C478.965 289.521 479.292 289.624 479.71 289.741C480.216 289.88 480.623 290.02 480.931 290.159C481.239 290.291 481.503 290.5 481.723 290.786C481.943 291.065 482.053 291.446 482.053 291.93C482.053 292.304 481.954 292.656 481.756 292.986C481.558 293.316 481.264 293.584 480.876 293.789C480.487 293.994 480.029 294.097 479.501 294.097ZM483.933 287.013C483.742 287.013 483.581 286.947 483.449 286.815C483.317 286.683 483.251 286.522 483.251 286.331C483.251 286.14 483.317 285.979 483.449 285.847C483.581 285.715 483.742 285.649 483.933 285.649C484.116 285.649 484.27 285.715 484.395 285.847C484.527 285.979 484.593 286.14 484.593 286.331C484.593 286.522 484.527 286.683 484.395 286.815C484.27 286.947 484.116 287.013 483.933 287.013ZM484.417 287.992V294.02H483.416V287.992H484.417ZM488.95 287.882C489.683 287.882 490.277 288.106 490.732 288.553C491.186 288.993 491.414 289.631 491.414 290.467V294.02H490.424V290.61C490.424 290.009 490.273 289.55 489.973 289.235C489.672 288.912 489.261 288.751 488.741 288.751C488.213 288.751 487.791 288.916 487.476 289.246C487.168 289.576 487.014 290.056 487.014 290.687V294.02H486.013V287.992H487.014V288.85C487.212 288.542 487.479 288.304 487.817 288.135C488.161 287.966 488.539 287.882 488.95 287.882ZM495.425 287.893C495.946 287.893 496.4 288.007 496.789 288.234C497.185 288.461 497.478 288.747 497.669 289.092V287.992H498.681V294.152C498.681 294.702 498.564 295.19 498.329 295.615C498.094 296.048 497.757 296.385 497.317 296.627C496.884 296.869 496.378 296.99 495.799 296.99C495.007 296.99 494.347 296.803 493.819 296.429C493.291 296.055 492.979 295.545 492.884 294.9H493.874C493.984 295.267 494.211 295.56 494.556 295.78C494.901 296.007 495.315 296.121 495.799 296.121C496.349 296.121 496.796 295.949 497.141 295.604C497.493 295.259 497.669 294.775 497.669 294.152V292.887C497.471 293.239 497.178 293.532 496.789 293.767C496.4 294.002 495.946 294.119 495.425 294.119C494.89 294.119 494.402 293.987 493.962 293.723C493.529 293.459 493.188 293.089 492.939 292.612C492.69 292.135 492.565 291.593 492.565 290.984C492.565 290.368 492.69 289.829 492.939 289.367C493.188 288.898 493.529 288.535 493.962 288.278C494.402 288.021 494.89 287.893 495.425 287.893ZM497.669 290.995C497.669 290.54 497.577 290.144 497.394 289.807C497.211 289.47 496.961 289.213 496.646 289.037C496.338 288.854 495.997 288.762 495.623 288.762C495.249 288.762 494.908 288.85 494.6 289.026C494.292 289.202 494.046 289.459 493.863 289.796C493.68 290.133 493.588 290.529 493.588 290.984C493.588 291.446 493.68 291.849 493.863 292.194C494.046 292.531 494.292 292.792 494.6 292.975C494.908 293.151 495.249 293.239 495.623 293.239C495.997 293.239 496.338 293.151 496.646 292.975C496.961 292.792 497.211 292.531 497.394 292.194C497.577 291.849 497.669 291.45 497.669 290.995ZM501.263 285.88V294.02H500.262V285.88H501.263ZM508.36 290.775C508.36 290.966 508.349 291.167 508.327 291.38H503.509C503.545 291.974 503.747 292.44 504.114 292.777C504.488 293.107 504.939 293.272 505.467 293.272C505.899 293.272 506.259 293.173 506.545 292.975C506.838 292.77 507.043 292.498 507.161 292.161H508.239C508.077 292.74 507.755 293.213 507.271 293.58C506.787 293.939 506.185 294.119 505.467 294.119C504.895 294.119 504.381 293.991 503.927 293.734C503.479 293.477 503.127 293.114 502.871 292.645C502.614 292.168 502.486 291.618 502.486 290.995C502.486 290.372 502.61 289.825 502.86 289.356C503.109 288.887 503.457 288.527 503.905 288.278C504.359 288.021 504.88 287.893 505.467 287.893C506.039 287.893 506.545 288.018 506.985 288.267C507.425 288.516 507.762 288.861 507.997 289.301C508.239 289.734 508.36 290.225 508.36 290.775ZM507.326 290.566C507.326 290.185 507.241 289.858 507.073 289.587C506.904 289.308 506.673 289.099 506.38 288.96C506.094 288.813 505.775 288.74 505.423 288.74C504.917 288.74 504.484 288.901 504.125 289.224C503.773 289.547 503.571 289.994 503.52 290.566H507.326ZM512.019 290.181C512.019 289.433 512.188 288.762 512.525 288.168C512.863 287.567 513.321 287.097 513.9 286.76C514.487 286.423 515.136 286.254 515.847 286.254C516.683 286.254 517.413 286.456 518.036 286.859C518.66 287.262 519.114 287.834 519.4 288.575H518.201C517.989 288.113 517.681 287.757 517.277 287.508C516.881 287.259 516.405 287.134 515.847 287.134C515.312 287.134 514.832 287.259 514.406 287.508C513.981 287.757 513.647 288.113 513.405 288.575C513.163 289.03 513.042 289.565 513.042 290.181C513.042 290.79 513.163 291.325 513.405 291.787C513.647 292.242 513.981 292.594 514.406 292.843C514.832 293.092 515.312 293.217 515.847 293.217C516.405 293.217 516.881 293.096 517.277 292.854C517.681 292.605 517.989 292.249 518.201 291.787H519.4C519.114 292.52 518.66 293.089 518.036 293.492C517.413 293.888 516.683 294.086 515.847 294.086C515.136 294.086 514.487 293.921 513.9 293.591C513.321 293.254 512.863 292.788 512.525 292.194C512.188 291.6 512.019 290.929 512.019 290.181ZM521.781 285.88V294.02H520.78V285.88H521.781ZM523.895 287.013C523.704 287.013 523.543 286.947 523.411 286.815C523.279 286.683 523.213 286.522 523.213 286.331C523.213 286.14 523.279 285.979 523.411 285.847C523.543 285.715 523.704 285.649 523.895 285.649C524.078 285.649 524.232 285.715 524.357 285.847C524.489 285.979 524.555 286.14 524.555 286.331C524.555 286.522 524.489 286.683 524.357 286.815C524.232 286.947 524.078 287.013 523.895 287.013ZM524.379 287.992V294.02H523.378V287.992H524.379ZM525.601 290.995C525.601 290.372 525.725 289.829 525.975 289.367C526.224 288.898 526.569 288.535 527.009 288.278C527.456 288.021 527.966 287.893 528.538 287.893C529.278 287.893 529.887 288.073 530.364 288.432C530.848 288.791 531.167 289.29 531.321 289.928H530.243C530.14 289.561 529.938 289.272 529.638 289.059C529.344 288.846 528.978 288.74 528.538 288.74C527.966 288.74 527.504 288.938 527.152 289.334C526.8 289.723 526.624 290.276 526.624 290.995C526.624 291.721 526.8 292.282 527.152 292.678C527.504 293.074 527.966 293.272 528.538 293.272C528.978 293.272 529.344 293.169 529.638 292.964C529.931 292.759 530.133 292.465 530.243 292.084H531.321C531.159 292.7 530.837 293.195 530.353 293.569C529.869 293.936 529.264 294.119 528.538 294.119C527.966 294.119 527.456 293.991 527.009 293.734C526.569 293.477 526.224 293.114 525.975 292.645C525.725 292.176 525.601 291.626 525.601 290.995ZM535.912 294.02L533.547 291.358V294.02H532.546V285.88H533.547V290.665L535.868 287.992H537.265L534.427 290.995L537.276 294.02H535.912ZM544.396 294.097C543.685 294.097 543.036 293.932 542.449 293.602C541.862 293.265 541.397 292.799 541.052 292.205C540.715 291.604 540.546 290.929 540.546 290.181C540.546 289.433 540.715 288.762 541.052 288.168C541.397 287.567 541.862 287.101 542.449 286.771C543.036 286.434 543.685 286.265 544.396 286.265C545.115 286.265 545.767 286.434 546.354 286.771C546.941 287.101 547.403 287.563 547.74 288.157C548.077 288.751 548.246 289.426 548.246 290.181C548.246 290.936 548.077 291.611 547.74 292.205C547.403 292.799 546.941 293.265 546.354 293.602C545.767 293.932 545.115 294.097 544.396 294.097ZM544.396 293.228C544.931 293.228 545.412 293.103 545.837 292.854C546.27 292.605 546.607 292.249 546.849 291.787C547.098 291.325 547.223 290.79 547.223 290.181C547.223 289.565 547.098 289.03 546.849 288.575C546.607 288.113 546.273 287.757 545.848 287.508C545.423 287.259 544.939 287.134 544.396 287.134C543.853 287.134 543.369 287.259 542.944 287.508C542.519 287.757 542.181 288.113 541.932 288.575C541.69 289.03 541.569 289.565 541.569 290.181C541.569 290.79 541.69 291.325 541.932 291.787C542.181 292.249 542.519 292.605 542.944 292.854C543.377 293.103 543.861 293.228 544.396 293.228ZM550.458 288.971C550.634 288.626 550.884 288.359 551.206 288.168C551.536 287.977 551.936 287.882 552.405 287.882V288.916H552.141C551.019 288.916 550.458 289.525 550.458 290.742V294.02H549.457V287.992H550.458V288.971ZM553.077 290.984C553.077 290.368 553.202 289.829 553.451 289.367C553.7 288.898 554.041 288.535 554.474 288.278C554.914 288.021 555.405 287.893 555.948 287.893C556.417 287.893 556.854 288.003 557.257 288.223C557.66 288.436 557.968 288.718 558.181 289.07V285.88H559.193V294.02H558.181V292.887C557.983 293.246 557.69 293.543 557.301 293.778C556.912 294.005 556.458 294.119 555.937 294.119C555.402 294.119 554.914 293.987 554.474 293.723C554.041 293.459 553.7 293.089 553.451 292.612C553.202 292.135 553.077 291.593 553.077 290.984ZM558.181 290.995C558.181 290.54 558.089 290.144 557.906 289.807C557.723 289.47 557.473 289.213 557.158 289.037C556.85 288.854 556.509 288.762 556.135 288.762C555.761 288.762 555.42 288.85 555.112 289.026C554.804 289.202 554.558 289.459 554.375 289.796C554.192 290.133 554.1 290.529 554.1 290.984C554.1 291.446 554.192 291.849 554.375 292.194C554.558 292.531 554.804 292.792 555.112 292.975C555.42 293.151 555.761 293.239 556.135 293.239C556.509 293.239 556.85 293.151 557.158 292.975C557.473 292.792 557.723 292.531 557.906 292.194C558.089 291.849 558.181 291.45 558.181 290.995ZM566.274 290.775C566.274 290.966 566.263 291.167 566.241 291.38H561.423C561.46 291.974 561.662 292.44 562.028 292.777C562.402 293.107 562.853 293.272 563.381 293.272C563.814 293.272 564.173 293.173 564.459 292.975C564.753 292.77 564.958 292.498 565.075 292.161H566.153C565.992 292.74 565.669 293.213 565.185 293.58C564.701 293.939 564.1 294.119 563.381 294.119C562.809 294.119 562.296 293.991 561.841 293.734C561.394 293.477 561.042 293.114 560.785 292.645C560.529 292.168 560.4 291.618 560.4 290.995C560.4 290.372 560.525 289.825 560.774 289.356C561.024 288.887 561.372 288.527 561.819 288.278C562.274 288.021 562.795 287.893 563.381 287.893C563.953 287.893 564.459 288.018 564.899 288.267C565.339 288.516 565.677 288.861 565.911 289.301C566.153 289.734 566.274 290.225 566.274 290.775ZM565.24 290.566C565.24 290.185 565.156 289.858 564.987 289.587C564.819 289.308 564.588 289.099 564.294 288.96C564.008 288.813 563.689 288.74 563.337 288.74C562.831 288.74 562.399 288.901 562.039 289.224C561.687 289.547 561.486 289.994 561.434 290.566H565.24ZM568.487 288.971C568.663 288.626 568.912 288.359 569.235 288.168C569.565 287.977 569.964 287.882 570.434 287.882V288.916H570.17C569.048 288.916 568.487 289.525 568.487 290.742V294.02H567.486V287.992H568.487V288.971Z" fill="white"/>
<rect x="85.0518" y="287.404" width="68.5145" height="20.4654" rx="4" fill="#1B2E21"/>
<rect x="85.5518" y="287.904" width="67.5145" height="19.4654" rx="3.5" stroke="white" stroke-opacity="0.2"/>
<path d="M93.6566 300.323H96.3406V301.137H92.6556V293.47H93.6566V300.323ZM97.8106 294.13C97.62 294.13 97.4586 294.064 97.3266 293.932C97.1946 293.8 97.1286 293.639 97.1286 293.448C97.1286 293.258 97.1946 293.096 97.3266 292.964C97.4586 292.832 97.62 292.766 97.8106 292.766C97.994 292.766 98.148 292.832 98.2726 292.964C98.4046 293.096 98.4706 293.258 98.4706 293.448C98.4706 293.639 98.4046 293.8 98.2726 293.932C98.148 294.064 97.994 294.13 97.8106 294.13ZM98.2946 295.109V301.137H97.2936V295.109H98.2946ZM107.14 294.999C107.609 294.999 108.027 295.098 108.394 295.296C108.76 295.487 109.05 295.777 109.263 296.165C109.475 296.554 109.582 297.027 109.582 297.584V301.137H108.592V297.727C108.592 297.126 108.441 296.668 108.141 296.352C107.847 296.03 107.448 295.868 106.942 295.868C106.421 295.868 106.007 296.037 105.699 296.374C105.391 296.704 105.237 297.185 105.237 297.815V301.137H104.247V297.727C104.247 297.126 104.096 296.668 103.796 296.352C103.502 296.03 103.103 295.868 102.597 295.868C102.076 295.868 101.662 296.037 101.354 296.374C101.046 296.704 100.892 297.185 100.892 297.815V301.137H99.8907V295.109H100.892V295.978C101.09 295.663 101.354 295.421 101.684 295.252C102.021 295.084 102.391 294.999 102.795 294.999C103.301 294.999 103.748 295.113 104.137 295.34C104.525 295.568 104.815 295.901 105.006 296.341C105.174 295.916 105.453 295.586 105.842 295.351C106.23 295.117 106.663 294.999 107.14 294.999ZM111.631 294.13C111.44 294.13 111.279 294.064 111.147 293.932C111.015 293.8 110.949 293.639 110.949 293.448C110.949 293.258 111.015 293.096 111.147 292.964C111.279 292.832 111.44 292.766 111.631 292.766C111.814 292.766 111.968 292.832 112.093 292.964C112.225 293.096 112.291 293.258 112.291 293.448C112.291 293.639 112.225 293.8 112.093 293.932C111.968 294.064 111.814 294.13 111.631 294.13ZM112.115 295.109V301.137H111.114V295.109H112.115ZM114.932 295.934V299.487C114.932 299.781 114.994 299.99 115.119 300.114C115.243 300.232 115.46 300.29 115.768 300.29H116.505V301.137H115.603C115.045 301.137 114.627 301.009 114.349 300.752C114.07 300.496 113.931 300.074 113.931 299.487V295.934H113.15V295.109H113.931V293.591H114.932V295.109H116.505V295.934H114.932ZM123.906 301.214C123.195 301.214 122.546 301.049 121.959 300.719C121.372 300.382 120.907 299.916 120.562 299.322C120.225 298.721 120.056 298.046 120.056 297.298C120.056 296.55 120.225 295.879 120.562 295.285C120.907 294.684 121.372 294.218 121.959 293.888C122.546 293.551 123.195 293.382 123.906 293.382C124.625 293.382 125.277 293.551 125.864 293.888C126.451 294.218 126.913 294.68 127.25 295.274C127.587 295.868 127.756 296.543 127.756 297.298C127.756 298.054 127.587 298.728 127.25 299.322C126.913 299.916 126.451 300.382 125.864 300.719C125.277 301.049 124.625 301.214 123.906 301.214ZM123.906 300.345C124.441 300.345 124.922 300.221 125.347 299.971C125.78 299.722 126.117 299.366 126.359 298.904C126.608 298.442 126.733 297.907 126.733 297.298C126.733 296.682 126.608 296.147 126.359 295.692C126.117 295.23 125.783 294.875 125.358 294.625C124.933 294.376 124.449 294.251 123.906 294.251C123.363 294.251 122.879 294.376 122.454 294.625C122.029 294.875 121.691 295.23 121.442 295.692C121.2 296.147 121.079 296.682 121.079 297.298C121.079 297.907 121.2 298.442 121.442 298.904C121.691 299.366 122.029 299.722 122.454 299.971C122.887 300.221 123.371 300.345 123.906 300.345ZM128.594 298.101C128.594 297.485 128.718 296.946 128.968 296.484C129.217 296.015 129.558 295.652 129.991 295.395C130.431 295.139 130.922 295.01 131.465 295.01C131.934 295.01 132.37 295.12 132.774 295.34C133.177 295.553 133.485 295.835 133.698 296.187V292.997H134.71V301.137H133.698V300.004C133.5 300.364 133.206 300.661 132.818 300.895C132.429 301.123 131.974 301.236 131.454 301.236C130.918 301.236 130.431 301.104 129.991 300.84C129.558 300.576 129.217 300.206 128.968 299.729C128.718 299.253 128.594 298.71 128.594 298.101ZM133.698 298.112C133.698 297.658 133.606 297.262 133.423 296.924C133.239 296.587 132.99 296.33 132.675 296.154C132.367 295.971 132.026 295.879 131.652 295.879C131.278 295.879 130.937 295.967 130.629 296.143C130.321 296.319 130.075 296.576 129.892 296.913C129.708 297.251 129.617 297.647 129.617 298.101C129.617 298.563 129.708 298.967 129.892 299.311C130.075 299.649 130.321 299.909 130.629 300.092C130.937 300.268 131.278 300.356 131.652 300.356C132.026 300.356 132.367 300.268 132.675 300.092C132.99 299.909 133.239 299.649 133.423 299.311C133.606 298.967 133.698 298.567 133.698 298.112ZM141.791 297.892C141.791 298.083 141.78 298.285 141.758 298.497H136.94C136.977 299.091 137.179 299.557 137.545 299.894C137.919 300.224 138.37 300.389 138.898 300.389C139.331 300.389 139.69 300.29 139.976 300.092C140.27 299.887 140.475 299.616 140.592 299.278H141.67C141.509 299.858 141.186 300.331 140.702 300.697C140.218 301.057 139.617 301.236 138.898 301.236C138.326 301.236 137.813 301.108 137.358 300.851C136.911 300.595 136.559 300.232 136.302 299.762C136.046 299.286 135.917 298.736 135.917 298.112C135.917 297.489 136.042 296.943 136.291 296.473C136.541 296.004 136.889 295.645 137.336 295.395C137.791 295.139 138.312 295.01 138.898 295.01C139.47 295.01 139.976 295.135 140.416 295.384C140.856 295.634 141.194 295.978 141.428 296.418C141.67 296.851 141.791 297.342 141.791 297.892ZM140.757 297.683C140.757 297.302 140.673 296.976 140.504 296.704C140.336 296.426 140.105 296.217 139.811 296.077C139.525 295.931 139.206 295.857 138.854 295.857C138.348 295.857 137.916 296.019 137.556 296.341C137.204 296.664 137.003 297.111 136.951 297.683H140.757ZM144.004 296.088C144.18 295.744 144.429 295.476 144.752 295.285C145.082 295.095 145.481 294.999 145.951 294.999V296.033H145.687C144.565 296.033 144.004 296.642 144.004 297.859V301.137H143.003V295.109H144.004V296.088Z" fill="white"/>
<g clip-path="url(#clip0_40_116161)">
<path d="M438.298 280.034C438.087 280.04 437.887 280.13 437.741 280.284C437.596 280.438 437.518 280.644 437.524 280.855L437.881 292.873C437.894 293.314 438.262 293.66 438.703 293.647C438.902 293.641 439.068 293.573 439.202 293.464L441.158 291.778L443.013 295.526C443.158 295.805 443.446 295.965 443.751 295.956C443.866 295.952 443.982 295.949 444.095 295.861L446.952 294.432C447.345 294.231 447.52 293.743 447.298 293.361L445.432 289.603L447.948 289.055C448.12 289.005 448.274 288.905 448.391 288.769C448.664 288.424 448.608 287.932 448.231 287.639L438.829 280.197L438.818 280.207C438.671 280.09 438.487 280.028 438.298 280.034ZM444.655 281.309L444.593 279.209L447.975 279.022L448.038 281.121L444.655 281.309ZM442.379 274.758L444.281 272.754L445.804 274.19L443.903 276.194L442.379 274.758ZM437.23 270.936L439.329 270.874L439.448 273.57L437.349 273.633L437.23 270.936ZM431.316 286.513L433.309 284.418L434.833 285.854L432.84 287.949L431.316 286.513ZM430.963 274.631L432.399 273.107L434.261 274.985L432.825 276.509L430.963 274.631ZM432.017 281.693L429.145 281.682L429.082 279.583L431.955 279.594L432.017 281.693Z" fill="url(#paint32_linear_40_116161)"/>
</g>
<rect x="424.064" width="151.555" height="107.666" rx="12" fill="white" fill-opacity="0.1"/>
<rect x="424.564" y="0.5" width="150.555" height="106.666" rx="11.5" stroke="white" stroke-opacity="0.2"/>
<rect x="430.922" y="6.85938" width="137.84" height="93.9503" rx="8" fill="#010924"/>
<rect x="412.042" y="65.1426" width="53.3693" height="20.4059" rx="4" fill="#4F1E1E"/>
<rect x="412.542" y="65.6426" width="52.3693" height="19.4059" rx="3.5" stroke="white" stroke-opacity="0.2"/>
<path d="M420.7 75.0067C420.7 74.2587 420.868 73.5877 421.206 72.9937C421.543 72.3924 422.001 71.923 422.581 71.5857C423.167 71.2484 423.816 71.0797 424.528 71.0797C425.364 71.0797 426.093 71.2814 426.717 71.6847C427.34 72.088 427.795 72.66 428.081 73.4007H426.882C426.669 72.9387 426.361 72.583 425.958 72.3337C425.562 72.0844 425.085 71.9597 424.528 71.9597C423.992 71.9597 423.512 72.0844 423.087 72.3337C422.661 72.583 422.328 72.9387 422.086 73.4007C421.844 73.8554 421.723 74.3907 421.723 75.0067C421.723 75.6154 421.844 76.1507 422.086 76.6127C422.328 77.0674 422.661 77.4194 423.087 77.6687C423.512 77.918 423.992 78.0427 424.528 78.0427C425.085 78.0427 425.562 77.9217 425.958 77.6797C426.361 77.4304 426.669 77.0747 426.882 76.6127H428.081C427.795 77.346 427.34 77.9144 426.717 78.3177C426.093 78.7137 425.364 78.9117 424.528 78.9117C423.816 78.9117 423.167 78.7467 422.581 78.4167C422.001 78.0794 421.543 77.6137 421.206 77.0197C420.868 76.4257 420.7 75.7547 420.7 75.0067ZM432.453 72.7077C432.907 72.7077 433.318 72.8067 433.685 73.0047C434.051 73.1954 434.337 73.485 434.543 73.8737C434.755 74.2624 434.862 74.7354 434.862 75.2927V78.8457H433.872V75.4357C433.872 74.8344 433.721 74.376 433.421 74.0607C433.12 73.738 432.709 73.5767 432.189 73.5767C431.661 73.5767 431.239 73.7417 430.924 74.0717C430.616 74.4017 430.462 74.882 430.462 75.5127V78.8457H429.461V70.7057H430.462V73.6757C430.66 73.3677 430.931 73.1294 431.276 72.9607C431.628 72.792 432.02 72.7077 432.453 72.7077ZM436.013 75.8097C436.013 75.1937 436.137 74.6547 436.387 74.1927C436.636 73.7234 436.977 73.3604 437.41 73.1037C437.85 72.847 438.337 72.7187 438.873 72.7187C439.401 72.7187 439.859 72.8324 440.248 73.0597C440.636 73.287 440.926 73.573 441.117 73.9177V72.8177H442.129V78.8457H441.117V77.7237C440.919 78.0757 440.622 78.369 440.226 78.6037C439.837 78.831 439.382 78.9447 438.862 78.9447C438.326 78.9447 437.842 78.8127 437.41 78.5487C436.977 78.2847 436.636 77.9144 436.387 77.4377C436.137 76.961 436.013 76.4184 436.013 75.8097ZM441.117 75.8207C441.117 75.366 441.025 74.97 440.842 74.6327C440.658 74.2954 440.409 74.0387 440.094 73.8627C439.786 73.6794 439.445 73.5877 439.071 73.5877C438.697 73.5877 438.356 73.6757 438.048 73.8517C437.74 74.0277 437.494 74.2844 437.311 74.6217C437.127 74.959 437.036 75.355 437.036 75.8097C437.036 76.2717 437.127 76.675 437.311 77.0197C437.494 77.357 437.74 77.6174 438.048 77.8007C438.356 77.9767 438.697 78.0647 439.071 78.0647C439.445 78.0647 439.786 77.9767 440.094 77.8007C440.409 77.6174 440.658 77.357 440.842 77.0197C441.025 76.675 441.117 76.2754 441.117 75.8207ZM444.711 73.7967C444.887 73.452 445.137 73.1844 445.459 72.9937C445.789 72.803 446.189 72.7077 446.658 72.7077V73.7417H446.394C445.272 73.7417 444.711 74.3504 444.711 75.5677V78.8457H443.71V72.8177H444.711V73.7967ZM448.925 73.6427V77.1957C448.925 77.489 448.987 77.698 449.112 77.8227C449.237 77.94 449.453 77.9987 449.761 77.9987H450.498V78.8457H449.596C449.039 78.8457 448.621 78.7174 448.342 78.4607C448.063 78.204 447.924 77.7824 447.924 77.1957V73.6427H447.143V72.8177H447.924V71.2997H448.925V72.8177H450.498V73.6427H448.925ZM453.735 78.9447C453.273 78.9447 452.858 78.8677 452.492 78.7137C452.125 78.5524 451.835 78.3324 451.623 78.0537C451.41 77.7677 451.293 77.4414 451.271 77.0747H452.305C452.334 77.3754 452.473 77.621 452.723 77.8117C452.979 78.0024 453.313 78.0977 453.724 78.0977C454.105 78.0977 454.406 78.0134 454.626 77.8447C454.846 77.676 454.956 77.4634 454.956 77.2067C454.956 76.9427 454.838 76.7484 454.604 76.6237C454.369 76.4917 454.006 76.3634 453.515 76.2387C453.067 76.1214 452.701 76.004 452.415 75.8867C452.136 75.762 451.894 75.5824 451.689 75.3477C451.491 75.1057 451.392 74.7904 451.392 74.4017C451.392 74.0937 451.483 73.8114 451.667 73.5547C451.85 73.298 452.11 73.0964 452.448 72.9497C452.785 72.7957 453.17 72.7187 453.603 72.7187C454.27 72.7187 454.809 72.8874 455.22 73.2247C455.63 73.562 455.85 74.024 455.88 74.6107H454.879C454.857 74.2954 454.728 74.0424 454.494 73.8517C454.266 73.661 453.958 73.5657 453.57 73.5657C453.21 73.5657 452.924 73.6427 452.712 73.7967C452.499 73.9507 452.393 74.1524 452.393 74.4017C452.393 74.5997 452.455 74.7647 452.58 74.8967C452.712 75.0214 452.873 75.124 453.064 75.2047C453.262 75.278 453.533 75.3624 453.878 75.4577C454.31 75.575 454.662 75.6924 454.934 75.8097C455.205 75.9197 455.436 76.0884 455.627 76.3157C455.825 76.543 455.927 76.84 455.935 77.2067C455.935 77.5367 455.843 77.8337 455.66 78.0977C455.476 78.3617 455.216 78.5707 454.879 78.7247C454.549 78.8714 454.167 78.9447 453.735 78.9447Z" fill="white"/>
<rect x="450.81" y="32.459" width="10.0579" height="37.7173" rx="1" fill="url(#paint33_linear_40_116161)"/>
<path d="M455.839 26.1738V73.949" stroke="url(#paint34_linear_40_116161)"/>
<rect x="463.382" y="19.8867" width="10.0579" height="37.7173" rx="1" fill="url(#paint35_linear_40_116161)"/>
<path d="M468.411 13.6016V61.3768" stroke="url(#paint36_linear_40_116161)"/>
<rect x="475.955" y="24.9182" width="10.0579" height="37.7173" rx="1" fill="url(#paint37_linear_40_116161)"/>
<path d="M480.983 18.6331V66.4083" stroke="url(#paint38_linear_40_116161)"/>
<rect x="488.527" y="33.717" width="10.0579" height="37.7173" rx="1" fill="url(#paint39_linear_40_116161)"/>
<path d="M493.556 27.4319V75.2071" stroke="url(#paint40_linear_40_116161)"/>
<rect x="501.1" y="45.0354" width="10.0579" height="37.7173" rx="1" fill="url(#paint41_linear_40_116161)"/>
<path d="M506.128 38.7502V86.5255" stroke="url(#paint42_linear_40_116161)"/>
<rect x="513.672" y="53.834" width="10.0579" height="37.7173" rx="1" fill="url(#paint43_linear_40_116161)"/>
<path d="M518.701 47.5488V95.324" stroke="url(#paint44_linear_40_116161)"/>
<rect x="524.986" y="29.9453" width="10.0579" height="37.7173" rx="1" fill="url(#paint45_linear_40_116161)"/>
<path d="M530.015 23.6602V71.4354" stroke="url(#paint46_linear_40_116161)"/>
<rect x="538.816" y="18.6309" width="10.0579" height="37.7173" rx="1" fill="url(#paint47_linear_40_116161)"/>
<path d="M543.845 12.3457V60.1209" stroke="url(#paint48_linear_40_116161)"/>
<rect x="9.41797" y="154.822" width="151.555" height="107.666" rx="12" fill="white" fill-opacity="0.1"/>
<rect x="9.91797" y="155.322" width="150.555" height="106.666" rx="11.5" stroke="white" stroke-opacity="0.2"/>
<rect x="16.5361" y="161.939" width="137.84" height="93.9503" rx="8" fill="#010924"/>
<rect y="167.955" width="59.648" height="18.0514" rx="4" fill="#1C274F"/>
<rect x="0.5" y="168.455" width="58.648" height="17.0514" rx="3.5" stroke="white" stroke-opacity="0.2"/>
<path d="M8.60222 180.558C8.09622 180.558 7.64155 180.47 7.23822 180.294C6.84222 180.111 6.53055 179.861 6.30322 179.546C6.07589 179.223 5.95855 178.853 5.95122 178.435H7.01822C7.05489 178.794 7.20155 179.099 7.45822 179.348C7.72222 179.59 8.10355 179.711 8.60222 179.711C9.07889 179.711 9.45289 179.594 9.72422 179.359C10.0029 179.117 10.1422 178.809 10.1422 178.435C10.1422 178.142 10.0616 177.903 9.90022 177.72C9.73889 177.537 9.53722 177.397 9.29522 177.302C9.05322 177.207 8.72689 177.104 8.31622 176.994C7.81022 176.862 7.40322 176.73 7.09522 176.598C6.79455 176.466 6.53422 176.261 6.31422 175.982C6.10155 175.696 5.99522 175.315 5.99522 174.838C5.99522 174.42 6.10155 174.05 6.31422 173.727C6.52689 173.404 6.82389 173.155 7.20522 172.979C7.59389 172.803 8.03755 172.715 8.53622 172.715C9.25489 172.715 9.84155 172.895 10.2962 173.254C10.7582 173.613 11.0186 174.09 11.0772 174.684H9.97722C9.94055 174.391 9.78655 174.134 9.51522 173.914C9.24389 173.687 8.88455 173.573 8.43722 173.573C8.01922 173.573 7.67822 173.683 7.41422 173.903C7.15022 174.116 7.01822 174.416 7.01822 174.805C7.01822 175.084 7.09522 175.311 7.24922 175.487C7.41055 175.663 7.60489 175.799 7.83222 175.894C8.06689 175.982 8.39322 176.085 8.81122 176.202C9.31722 176.341 9.72422 176.481 10.0322 176.62C10.3402 176.752 10.6042 176.961 10.8242 177.247C11.0442 177.526 11.1542 177.907 11.1542 178.391C11.1542 178.765 11.0552 179.117 10.8572 179.447C10.6592 179.777 10.3659 180.045 9.97722 180.25C9.58855 180.455 9.13022 180.558 8.60222 180.558ZM13.7383 175.278V178.831C13.7383 179.124 13.8006 179.333 13.9253 179.458C14.0499 179.575 14.2663 179.634 14.5743 179.634H15.3113V180.481H14.4093C13.8519 180.481 13.4339 180.353 13.1553 180.096C12.8766 179.839 12.7373 179.418 12.7373 178.831V175.278H11.9563V174.453H12.7373V172.935H13.7383V174.453H15.3113V175.278H13.7383ZM19.0431 180.58C18.4784 180.58 17.9651 180.452 17.5031 180.195C17.0484 179.938 16.6891 179.575 16.4251 179.106C16.1684 178.629 16.0401 178.079 16.0401 177.456C16.0401 176.84 16.1721 176.297 16.4361 175.828C16.7074 175.351 17.0741 174.988 17.5361 174.739C17.9981 174.482 18.5151 174.354 19.0871 174.354C19.6591 174.354 20.1761 174.482 20.6381 174.739C21.1001 174.988 21.4631 175.348 21.7271 175.817C21.9984 176.286 22.1341 176.833 22.1341 177.456C22.1341 178.079 21.9948 178.629 21.7161 179.106C21.4448 179.575 21.0744 179.938 20.6051 180.195C20.1358 180.452 19.6151 180.58 19.0431 180.58ZM19.0431 179.7C19.4024 179.7 19.7398 179.616 20.0551 179.447C20.3704 179.278 20.6234 179.025 20.8141 178.688C21.0121 178.351 21.1111 177.94 21.1111 177.456C21.1111 176.972 21.0158 176.561 20.8251 176.224C20.6344 175.887 20.3851 175.637 20.0771 175.476C19.7691 175.307 19.4354 175.223 19.0761 175.223C18.7094 175.223 18.3721 175.307 18.0641 175.476C17.7634 175.637 17.5214 175.887 17.3381 176.224C17.1548 176.561 17.0631 176.972 17.0631 177.456C17.0631 177.947 17.1511 178.362 17.3271 178.699C17.5104 179.036 17.7524 179.289 18.0531 179.458C18.3538 179.619 18.6838 179.7 19.0431 179.7ZM24.3412 175.564C24.5392 175.219 24.8326 174.933 25.2212 174.706C25.6172 174.471 26.0756 174.354 26.5962 174.354C27.1316 174.354 27.6156 174.482 28.0482 174.739C28.4882 174.996 28.8329 175.359 29.0822 175.828C29.3316 176.29 29.4562 176.829 29.4562 177.445C29.4562 178.054 29.3316 178.596 29.0822 179.073C28.8329 179.55 28.4882 179.92 28.0482 180.184C27.6156 180.448 27.1316 180.58 26.5962 180.58C26.0829 180.58 25.6282 180.466 25.2322 180.239C24.8436 180.004 24.5466 179.715 24.3412 179.37V183.341H23.3402V174.453H24.3412V175.564ZM28.4332 177.445C28.4332 176.99 28.3416 176.594 28.1582 176.257C27.9749 175.92 27.7256 175.663 27.4102 175.487C27.1022 175.311 26.7612 175.223 26.3872 175.223C26.0206 175.223 25.6796 175.315 25.3642 175.498C25.0562 175.674 24.8069 175.934 24.6162 176.279C24.4329 176.616 24.3412 177.009 24.3412 177.456C24.3412 177.911 24.4329 178.31 24.6162 178.655C24.8069 178.992 25.0562 179.253 25.3642 179.436C25.6796 179.612 26.0206 179.7 26.3872 179.7C26.7612 179.7 27.1022 179.612 27.4102 179.436C27.7256 179.253 27.9749 178.992 28.1582 178.655C28.3416 178.31 28.4332 177.907 28.4332 177.445ZM34.4875 172.341V180.481H33.4865V172.341H34.4875ZM38.7125 180.58C38.1478 180.58 37.6345 180.452 37.1725 180.195C36.7178 179.938 36.3585 179.575 36.0945 179.106C35.8378 178.629 35.7095 178.079 35.7095 177.456C35.7095 176.84 35.8415 176.297 36.1055 175.828C36.3768 175.351 36.7435 174.988 37.2055 174.739C37.6675 174.482 38.1845 174.354 38.7565 174.354C39.3285 174.354 39.8455 174.482 40.3075 174.739C40.7695 174.988 41.1325 175.348 41.3965 175.817C41.6678 176.286 41.8035 176.833 41.8035 177.456C41.8035 178.079 41.6642 178.629 41.3855 179.106C41.1142 179.575 40.7438 179.938 40.2745 180.195C39.8052 180.452 39.2845 180.58 38.7125 180.58ZM38.7125 179.7C39.0718 179.7 39.4092 179.616 39.7245 179.447C40.0398 179.278 40.2928 179.025 40.4835 178.688C40.6815 178.351 40.7805 177.94 40.7805 177.456C40.7805 176.972 40.6852 176.561 40.4945 176.224C40.3038 175.887 40.0545 175.637 39.7465 175.476C39.4385 175.307 39.1048 175.223 38.7455 175.223C38.3788 175.223 38.0415 175.307 37.7335 175.476C37.4328 175.637 37.1908 175.887 37.0075 176.224C36.8242 176.561 36.7325 176.972 36.7325 177.456C36.7325 177.947 36.8205 178.362 36.9965 178.699C37.1798 179.036 37.4218 179.289 37.7225 179.458C38.0232 179.619 38.3532 179.7 38.7125 179.7ZM45.1436 180.58C44.6816 180.58 44.2673 180.503 43.9006 180.349C43.534 180.188 43.2443 179.968 43.0316 179.689C42.819 179.403 42.7016 179.077 42.6796 178.71H43.7136C43.743 179.011 43.8823 179.256 44.1316 179.447C44.3883 179.638 44.722 179.733 45.1326 179.733C45.514 179.733 45.8146 179.649 46.0346 179.48C46.2546 179.311 46.3646 179.099 46.3646 178.842C46.3646 178.578 46.2473 178.384 46.0126 178.259C45.778 178.127 45.415 177.999 44.9236 177.874C44.4763 177.757 44.1096 177.639 43.8236 177.522C43.545 177.397 43.303 177.218 43.0976 176.983C42.8996 176.741 42.8006 176.426 42.8006 176.037C42.8006 175.729 42.8923 175.447 43.0756 175.19C43.259 174.933 43.5193 174.732 43.8566 174.585C44.194 174.431 44.579 174.354 45.0116 174.354C45.679 174.354 46.218 174.523 46.6286 174.86C47.0393 175.197 47.2593 175.659 47.2886 176.246H46.2876C46.2656 175.931 46.1373 175.678 45.9026 175.487C45.6753 175.296 45.3673 175.201 44.9786 175.201C44.6193 175.201 44.3333 175.278 44.1206 175.432C43.908 175.586 43.8016 175.788 43.8016 176.037C43.8016 176.235 43.864 176.4 43.9886 176.532C44.1206 176.657 44.282 176.759 44.4726 176.84C44.6706 176.913 44.942 176.998 45.2866 177.093C45.7193 177.21 46.0713 177.328 46.3426 177.445C46.614 177.555 46.845 177.724 47.0356 177.951C47.2336 178.178 47.3363 178.475 47.3436 178.842C47.3436 179.172 47.252 179.469 47.0686 179.733C46.8853 179.997 46.625 180.206 46.2876 180.36C45.9576 180.507 45.5763 180.58 45.1436 180.58ZM50.7807 180.58C50.3187 180.58 49.9044 180.503 49.5377 180.349C49.171 180.188 48.8814 179.968 48.6687 179.689C48.456 179.403 48.3387 179.077 48.3167 178.71H49.3507C49.38 179.011 49.5194 179.256 49.7687 179.447C50.0254 179.638 50.359 179.733 50.7697 179.733C51.151 179.733 51.4517 179.649 51.6717 179.48C51.8917 179.311 52.0017 179.099 52.0017 178.842C52.0017 178.578 51.8844 178.384 51.6497 178.259C51.415 178.127 51.052 177.999 50.5607 177.874C50.1134 177.757 49.7467 177.639 49.4607 177.522C49.182 177.397 48.94 177.218 48.7347 176.983C48.5367 176.741 48.4377 176.426 48.4377 176.037C48.4377 175.729 48.5294 175.447 48.7127 175.19C48.896 174.933 49.1564 174.732 49.4937 174.585C49.831 174.431 50.216 174.354 50.6487 174.354C51.316 174.354 51.855 174.523 52.2657 174.86C52.6764 175.197 52.8964 175.659 52.9257 176.246H51.9247C51.9027 175.931 51.7744 175.678 51.5397 175.487C51.3124 175.296 51.0044 175.201 50.6157 175.201C50.2564 175.201 49.9704 175.278 49.7577 175.432C49.545 175.586 49.4387 175.788 49.4387 176.037C49.4387 176.235 49.501 176.4 49.6257 176.532C49.7577 176.657 49.919 176.759 50.1097 176.84C50.3077 176.913 50.579 176.998 50.9237 177.093C51.3564 177.21 51.7084 177.328 51.9797 177.445C52.251 177.555 52.482 177.724 52.6727 177.951C52.8707 178.178 52.9734 178.475 52.9807 178.842C52.9807 179.172 52.889 179.469 52.7057 179.733C52.5224 179.997 52.262 180.206 51.9247 180.36C51.5947 180.507 51.2134 180.58 50.7807 180.58Z" fill="white"/>
<path d="M50.8726 195.996C38.2591 192.65 32.239 212.379 30.8057 222.661V244.248H140.218V188.676C137.351 186.062 133.529 175.606 121.585 172.992C109.64 170.378 103.907 181.88 92.9175 195.996C81.9285 210.113 66.6394 200.179 50.8726 195.996Z" fill="url(#paint49_linear_40_116161)"/>
<path d="M30.3281 222.813C31.7615 212.531 37.7815 192.803 50.395 196.149C66.1619 200.331 81.451 210.265 92.44 196.149C103.429 182.033 109.162 170.53 121.107 173.144C133.052 175.758 136.874 186.214 139.741 188.828" stroke="#6DD288" stroke-linecap="round"/>
<path d="M53.4049 208.375C47.6446 199.477 35.3241 199.594 29.8838 200.764V244.693H139.329V227.985C124.448 215.399 104.092 231.738 96.127 220.083C88.9266 209.545 80.7662 208.96 74.0459 215.399C69.8191 219.449 60.6053 219.497 53.4049 208.375Z" fill="url(#paint50_linear_40_116161)"/>
<path d="M29.8838 200.788C35.3241 199.617 47.6446 199.5 53.4049 208.398C60.6053 219.52 69.8191 219.473 74.0459 215.423C80.7662 208.983 88.9266 209.569 96.127 220.106C104.092 231.761 124.448 215.423 139.329 228.009" stroke="#E25F5B"/>
<defs>
<linearGradient id="paint0_linear_40_116161" x1="503.257" y1="9.78921" x2="129.097" y2="336.79" gradientUnits="userSpaceOnUse">
<stop stop-color="#A84444"/>
<stop offset="1" stop-color="#7E44FA" stop-opacity="0.62"/>
</linearGradient>
<linearGradient id="paint1_linear_40_116161" x1="263.234" y1="93.7031" x2="263.234" y2="300.803" gradientUnits="userSpaceOnUse">
<stop stop-color="#136342" stop-opacity="0"/>
<stop offset="1" stop-color="#092132"/>
<stop offset="1" stop-color="#136342"/>
</linearGradient>
<linearGradient id="paint2_linear_40_116161" x1="234.794" y1="215.235" x2="296.303" y2="215.235" gradientUnits="userSpaceOnUse">
<stop stop-color="#136342"/>
<stop offset="0.395833" stop-color="#136342" stop-opacity="0.10828"/>
<stop offset="0.817708" stop-color="#136342" stop-opacity="0"/>
</linearGradient>
<linearGradient id="paint3_linear_40_116161" x1="234.794" y1="230.993" x2="296.303" y2="230.993" gradientUnits="userSpaceOnUse">
<stop stop-color="#136342"/>
<stop offset="0.505208" stop-color="#136342" stop-opacity="0.110236"/>
<stop offset="0.661458" stop-color="#136342" stop-opacity="0"/>
</linearGradient>
<linearGradient id="paint4_linear_40_116161" x1="234.794" y1="246.188" x2="296.303" y2="246.188" gradientUnits="userSpaceOnUse">
<stop stop-color="#136342"/>
<stop offset="0.661458" stop-color="#136342" stop-opacity="0"/>
</linearGradient>
<linearGradient id="paint5_linear_40_116161" x1="234.794" y1="261.381" x2="296.303" y2="261.381" gradientUnits="userSpaceOnUse">
<stop stop-color="#136342"/>
<stop offset="1" stop-color="#136342" stop-opacity="0"/>
</linearGradient>
<linearGradient id="paint6_linear_40_116161" x1="234.794" y1="276.016" x2="296.303" y2="276.016" gradientUnits="userSpaceOnUse">
<stop stop-color="#136342"/>
<stop offset="0.760417" stop-color="#136342" stop-opacity="0"/>
</linearGradient>
<linearGradient id="paint7_linear_40_116161" x1="234.794" y1="291.208" x2="296.303" y2="291.208" gradientUnits="userSpaceOnUse">
<stop stop-color="#136342"/>
<stop offset="0.510417" stop-color="#136342" stop-opacity="0"/>
</linearGradient>
<linearGradient id="paint8_linear_40_116161" x1="350.535" y1="192.754" x2="276.681" y2="192.754" gradientUnits="userSpaceOnUse">
<stop stop-color="#3B5CFF" stop-opacity="0.59"/>
<stop offset="0.822917" stop-color="#6D3EF4" stop-opacity="0.33"/>
</linearGradient>
<linearGradient id="paint9_linear_40_116161" x1="350.535" y1="147.168" x2="276.681" y2="147.168" gradientUnits="userSpaceOnUse">
<stop stop-color="#3B5CFF" stop-opacity="0.59"/>
<stop offset="0.822917" stop-color="#6D3EF4" stop-opacity="0.33"/>
</linearGradient>
<linearGradient id="paint10_linear_40_116161" x1="350.535" y1="162.361" x2="276.681" y2="162.361" gradientUnits="userSpaceOnUse">
<stop stop-color="#3B5CFF" stop-opacity="0.59"/>
<stop offset="0.822917" stop-color="#6D3EF4" stop-opacity="0.33"/>
</linearGradient>
<linearGradient id="paint11_linear_40_116161" x1="350.535" y1="117.338" x2="276.681" y2="117.338" gradientUnits="userSpaceOnUse">
<stop stop-color="#3B5CFF" stop-opacity="0.59"/>
<stop offset="0.822917" stop-color="#6D3EF4" stop-opacity="0.33"/>
</linearGradient>
<linearGradient id="paint12_linear_40_116161" x1="350.535" y1="102.148" x2="276.681" y2="102.148" gradientUnits="userSpaceOnUse">
<stop stop-color="#3B5CFF" stop-opacity="0.59"/>
<stop offset="0.822917" stop-color="#6D3EF4" stop-opacity="0.33"/>
</linearGradient>
<linearGradient id="paint13_linear_40_116161" x1="350.535" y1="208.508" x2="276.681" y2="208.508" gradientUnits="userSpaceOnUse">
<stop stop-color="#3B5CFF" stop-opacity="0.59"/>
<stop offset="0.822917" stop-color="#6D3EF4" stop-opacity="0.33"/>
</linearGradient>
<linearGradient id="paint14_linear_40_116161" x1="350.535" y1="238.896" x2="276.681" y2="238.896" gradientUnits="userSpaceOnUse">
<stop stop-color="#3B5CFF" stop-opacity="0.59"/>
<stop offset="0.822917" stop-color="#6D3EF4" stop-opacity="0.33"/>
</linearGradient>
<linearGradient id="paint15_linear_40_116161" x1="350.535" y1="283.922" x2="276.681" y2="283.922" gradientUnits="userSpaceOnUse">
<stop stop-color="#3B5CFF" stop-opacity="0.59"/>
<stop offset="0.822917" stop-color="#6D3EF4" stop-opacity="0.33"/>
</linearGradient>
<linearGradient id="paint16_linear_40_116161" x1="369.054" y1="93.7031" x2="369.054" y2="300.803" gradientUnits="userSpaceOnUse">
<stop offset="0.0833333" stop-color="#2E1518"/>
<stop offset="1" stop-color="#32091F" stop-opacity="0.43"/>
</linearGradient>
<linearGradient id="paint17_linear_40_116161" x1="384.706" y1="192.34" x2="446.215" y2="192.34" gradientUnits="userSpaceOnUse">
<stop stop-color="#AC5A5A"/>
<stop offset="0.526042" stop-color="#843737" stop-opacity="0"/>
</linearGradient>
<linearGradient id="paint18_linear_40_116161" x1="384.706" y1="176.584" x2="446.215" y2="176.584" gradientUnits="userSpaceOnUse">
<stop stop-color="#AC5A5A"/>
<stop offset="0.708333" stop-color="#843737" stop-opacity="0"/>
</linearGradient>
<linearGradient id="paint19_linear_40_116161" x1="384.706" y1="161.387" x2="446.215" y2="161.387" gradientUnits="userSpaceOnUse">
<stop stop-color="#814949"/>
<stop offset="1" stop-color="#843737" stop-opacity="0"/>
</linearGradient>
<linearGradient id="paint20_linear_40_116161" x1="384.706" y1="146.756" x2="446.215" y2="146.756" gradientUnits="userSpaceOnUse">
<stop stop-color="#814949"/>
<stop offset="0.802083" stop-color="#843737" stop-opacity="0"/>
</linearGradient>
<linearGradient id="paint21_linear_40_116161" x1="384.706" y1="131.557" x2="446.215" y2="131.557" gradientUnits="userSpaceOnUse">
<stop stop-color="#814949"/>
<stop offset="0.78125" stop-color="#843737" stop-opacity="0"/>
</linearGradient>
<linearGradient id="paint22_linear_40_116161" x1="384.706" y1="116.368" x2="446.215" y2="116.368" gradientUnits="userSpaceOnUse">
<stop stop-color="#814949"/>
<stop offset="0.625" stop-color="#843737" stop-opacity="0"/>
</linearGradient>
<linearGradient id="paint23_linear_40_116161" x1="350.535" y1="177.555" x2="276.681" y2="177.555" gradientUnits="userSpaceOnUse">
<stop stop-color="#3B5CFF" stop-opacity="0.59"/>
<stop offset="0.822917" stop-color="#6D3EF4" stop-opacity="0.33"/>
</linearGradient>
<linearGradient id="paint24_linear_40_116161" x1="350.535" y1="254.096" x2="276.681" y2="254.096" gradientUnits="userSpaceOnUse">
<stop stop-color="#3B5CFF" stop-opacity="0.59"/>
<stop offset="0.822917" stop-color="#6D3EF4" stop-opacity="0.33"/>
</linearGradient>
<linearGradient id="paint25_linear_40_116161" x1="234.131" y1="175.867" x2="181.221" y2="175.867" gradientUnits="userSpaceOnUse">
<stop stop-color="#688667"/>
<stop offset="1" stop-color="#2B7777"/>
</linearGradient>
<linearGradient id="paint26_linear_40_116161" x1="234.131" y1="130.846" x2="181.221" y2="130.846" gradientUnits="userSpaceOnUse">
<stop stop-color="#688667"/>
<stop offset="1" stop-color="#2B7777"/>
</linearGradient>
<linearGradient id="paint27_linear_40_116161" x1="482.371" y1="277.725" x2="429.461" y2="277.725" gradientUnits="userSpaceOnUse">
<stop stop-color="#86677C"/>
<stop offset="1" stop-color="#772B2B"/>
</linearGradient>
<linearGradient id="paint28_linear_40_116161" x1="482.371" y1="232.705" x2="429.461" y2="232.705" gradientUnits="userSpaceOnUse">
<stop stop-color="#86677C"/>
<stop offset="1" stop-color="#772B2B"/>
</linearGradient>
<linearGradient id="paint29_linear_40_116161" x1="350.535" y1="132.535" x2="276.681" y2="132.535" gradientUnits="userSpaceOnUse">
<stop stop-color="#3B5CFF" stop-opacity="0.59"/>
<stop offset="0.822917" stop-color="#6D3EF4" stop-opacity="0.33"/>
</linearGradient>
<linearGradient id="paint30_linear_40_116161" x1="350.535" y1="269.291" x2="276.681" y2="269.291" gradientUnits="userSpaceOnUse">
<stop stop-color="#3B5CFF" stop-opacity="0.59"/>
<stop offset="0.822917" stop-color="#6D3EF4" stop-opacity="0.33"/>
</linearGradient>
<linearGradient id="paint31_linear_40_116161" x1="350.535" y1="223.703" x2="276.681" y2="223.703" gradientUnits="userSpaceOnUse">
<stop stop-color="#3B5CFF" stop-opacity="0.59"/>
<stop offset="0.822917" stop-color="#6D3EF4" stop-opacity="0.33"/>
</linearGradient>
<linearGradient id="paint32_linear_40_116161" x1="438.435" y1="270.9" x2="439.183" y2="296.091" gradientUnits="userSpaceOnUse">
<stop stop-color="#70A457"/>
<stop offset="1" stop-color="#6F571A"/>
</linearGradient>
<linearGradient id="paint33_linear_40_116161" x1="455.839" y1="32.459" x2="455.839" y2="70.1763" gradientUnits="userSpaceOnUse">
<stop stop-color="#3C7064"/>
<stop offset="1" stop-color="#324D3A" stop-opacity="0"/>
</linearGradient>
<linearGradient id="paint34_linear_40_116161" x1="456.339" y1="26.1738" x2="456.339" y2="73.949" gradientUnits="userSpaceOnUse">
<stop stop-color="#3C7064"/>
<stop offset="1" stop-color="#324D3A" stop-opacity="0"/>
</linearGradient>
<linearGradient id="paint35_linear_40_116161" x1="468.411" y1="19.8867" x2="468.411" y2="57.604" gradientUnits="userSpaceOnUse">
<stop stop-color="#3C7064"/>
<stop offset="1" stop-color="#324D3A" stop-opacity="0"/>
</linearGradient>
<linearGradient id="paint36_linear_40_116161" x1="468.911" y1="13.6016" x2="468.911" y2="61.3768" gradientUnits="userSpaceOnUse">
<stop stop-color="#3C7064"/>
<stop offset="1" stop-color="#324D3A" stop-opacity="0"/>
</linearGradient>
<linearGradient id="paint37_linear_40_116161" x1="480.984" y1="24.9182" x2="480.984" y2="62.6355" gradientUnits="userSpaceOnUse">
<stop stop-color="#7C4047"/>
<stop offset="1" stop-color="#38191D" stop-opacity="0"/>
</linearGradient>
<linearGradient id="paint38_linear_40_116161" x1="481.483" y1="18.6331" x2="481.483" y2="66.4083" gradientUnits="userSpaceOnUse">
<stop stop-color="#7C4047"/>
<stop offset="1" stop-color="#38191D" stop-opacity="0"/>
</linearGradient>
<linearGradient id="paint39_linear_40_116161" x1="493.556" y1="33.717" x2="493.556" y2="71.4343" gradientUnits="userSpaceOnUse">
<stop stop-color="#7C4047"/>
<stop offset="1" stop-color="#38191D" stop-opacity="0"/>
</linearGradient>
<linearGradient id="paint40_linear_40_116161" x1="494.056" y1="27.4319" x2="494.056" y2="75.2071" gradientUnits="userSpaceOnUse">
<stop stop-color="#7C4047"/>
<stop offset="1" stop-color="#38191D" stop-opacity="0"/>
</linearGradient>
<linearGradient id="paint41_linear_40_116161" x1="506.129" y1="45.0354" x2="506.129" y2="82.7527" gradientUnits="userSpaceOnUse">
<stop stop-color="#7C4047"/>
<stop offset="1" stop-color="#38191D" stop-opacity="0"/>
</linearGradient>
<linearGradient id="paint42_linear_40_116161" x1="506.628" y1="38.7502" x2="506.628" y2="86.5255" gradientUnits="userSpaceOnUse">
<stop stop-color="#7C4047"/>
<stop offset="1" stop-color="#38191D" stop-opacity="0"/>
</linearGradient>
<linearGradient id="paint43_linear_40_116161" x1="518.701" y1="53.834" x2="518.701" y2="91.5513" gradientUnits="userSpaceOnUse">
<stop stop-color="#7C4047"/>
<stop offset="1" stop-color="#38191D" stop-opacity="0"/>
</linearGradient>
<linearGradient id="paint44_linear_40_116161" x1="519.201" y1="47.5488" x2="519.201" y2="95.324" gradientUnits="userSpaceOnUse">
<stop stop-color="#7C4047"/>
<stop offset="1" stop-color="#38191D" stop-opacity="0"/>
</linearGradient>
<linearGradient id="paint45_linear_40_116161" x1="530.015" y1="29.9453" x2="530.015" y2="67.6626" gradientUnits="userSpaceOnUse">
<stop stop-color="#3C7064"/>
<stop offset="1" stop-color="#324D3A" stop-opacity="0"/>
</linearGradient>
<linearGradient id="paint46_linear_40_116161" x1="530.515" y1="23.6602" x2="530.515" y2="71.4354" gradientUnits="userSpaceOnUse">
<stop stop-color="#3C7064"/>
<stop offset="1" stop-color="#324D3A" stop-opacity="0"/>
</linearGradient>
<linearGradient id="paint47_linear_40_116161" x1="543.845" y1="18.6309" x2="543.845" y2="56.3481" gradientUnits="userSpaceOnUse">
<stop stop-color="#3C7064"/>
<stop offset="1" stop-color="#324D3A" stop-opacity="0"/>
</linearGradient>
<linearGradient id="paint48_linear_40_116161" x1="544.345" y1="12.3457" x2="544.345" y2="60.1209" gradientUnits="userSpaceOnUse">
<stop stop-color="#3C7064"/>
<stop offset="1" stop-color="#324D3A" stop-opacity="0"/>
</linearGradient>
<linearGradient id="paint49_linear_40_116161" x1="85.5119" y1="172.619" x2="85.5119" y2="244.248" gradientUnits="userSpaceOnUse">
<stop stop-color="#304632"/>
<stop offset="1" stop-color="#323B33" stop-opacity="0"/>
</linearGradient>
<linearGradient id="paint50_linear_40_116161" x1="84.6064" y1="200.203" x2="84.6064" y2="244.693" gradientUnits="userSpaceOnUse">
<stop stop-color="#1F1212"/>
<stop offset="1" stop-color="#5C3535" stop-opacity="0"/>
</linearGradient>
<clipPath id="clip0_40_116161">
<rect width="25.202" height="25.202" fill="white" transform="translate(426.734 271.248) rotate(-1.70063)"/>
</clipPath>
</defs>
</svg>
