<svg width="19" height="20" viewBox="0 0 19 20" fill="none" xmlns="http://www.w3.org/2000/svg">
<g id="Social Media Icon Square/Instagram">
<path id="Instagram" fill-rule="evenodd" clip-rule="evenodd" d="M0.849609 10.2845C0.849609 6.68941 0.849609 4.89184 1.7063 3.5971C2.08886 3.01893 2.584 2.52379 3.16216 2.14124C4.4569 1.28455 6.25447 1.28455 9.84961 1.28455C13.4447 1.28455 15.2423 1.28455 16.5371 2.14124C17.1152 2.52379 17.6104 3.01893 17.9929 3.5971C18.8496 4.89184 18.8496 6.68941 18.8496 10.2845C18.8496 13.8797 18.8496 15.6773 17.9929 16.972C17.6104 17.5502 17.1152 18.0453 16.5371 18.4279C15.2423 19.2845 13.4447 19.2845 9.84961 19.2845C6.25447 19.2845 4.4569 19.2845 3.16216 18.4279C2.584 18.0453 2.08886 17.5502 1.7063 16.972C0.849609 15.6773 0.849609 13.8797 0.849609 10.2845ZM14.5089 10.284C14.5089 12.8573 12.4228 14.9434 9.84948 14.9434C7.27616 14.9434 5.19007 12.8573 5.19007 10.284C5.19007 7.71066 7.27616 5.62457 9.84948 5.62457C12.4228 5.62457 14.5089 7.71066 14.5089 10.284ZM9.84948 13.367C11.5522 13.367 12.9325 11.9867 12.9325 10.284C12.9325 8.58129 11.5522 7.20098 9.84948 7.20098C8.14678 7.20098 6.76647 8.58129 6.76647 10.284C6.76647 11.9867 8.14678 13.367 9.84948 13.367ZM14.6929 6.48609C15.2975 6.48609 15.7877 5.99593 15.7877 5.39127C15.7877 4.78662 15.2975 4.29645 14.6929 4.29645C14.0882 4.29645 13.5981 4.78662 13.5981 5.39127C13.5981 5.99593 14.0882 6.48609 14.6929 6.48609Z" fill="#6A71E5"/>
</g>
</svg>
