<svg width="19" height="19" viewBox="0 0 19 19" fill="none" xmlns="http://www.w3.org/2000/svg">
<g id="Social Media Icon Square/LinkedIn">
<g id="Group 73">
<path id="LinkedIn" d="M0.849609 3.20557C0.849609 2.62836 1.05232 2.15217 1.45772 1.777C1.86312 1.40182 2.39016 1.21423 3.0388 1.21423C3.67587 1.21423 4.1913 1.39893 4.58513 1.76835C4.99053 2.1493 5.19324 2.64568 5.19324 3.25752C5.19324 3.81164 4.99633 4.27338 4.6025 4.6428C4.19711 5.02376 3.66428 5.21423 3.00405 5.21423H2.98668C2.3496 5.21423 1.83417 5.02376 1.44034 4.6428C1.04651 4.26185 0.849609 3.78277 0.849609 3.20557ZM1.07548 18.3571V6.78999H4.93262V18.3571H1.07548ZM7.06969 18.3571H10.9268V11.8982C10.9268 11.4942 10.9732 11.1825 11.0658 10.9631C11.228 10.5706 11.4741 10.2387 11.8042 9.96748C12.1344 9.69619 12.5484 9.56055 13.0465 9.56055C14.3438 9.56055 14.9925 10.4321 14.9925 12.1753V18.3571H18.8496V11.7251C18.8496 10.0165 18.4442 8.72072 17.6334 7.83761C16.8226 6.95449 15.7512 6.51293 14.4191 6.51293C12.9249 6.51293 11.7608 7.15363 10.9268 8.43501V8.46964H10.9095L10.9268 8.43501V6.78999H7.06969C7.09285 7.15939 7.10444 8.30801 7.10444 10.2359C7.10444 12.1637 7.09285 14.8708 7.06969 18.3571Z" fill="#6A71E5"/>
</g>
</g>
</svg>
