<svg width="169" height="30" viewBox="0 0 169 30" fill="none" xmlns="http://www.w3.org/2000/svg">
<path fill-rule="evenodd" clip-rule="evenodd" d="M8.38169 26.9122C10.0269 27.6124 11.7897 27.9727 13.5696 27.9727C15.6867 27.9727 17.4029 26.2022 17.4029 24.0183C17.4029 21.8343 15.6867 20.0638 13.5696 20.0638C12.7923 20.0638 12.023 19.9065 11.3057 19.6012C10.5884 19.2959 9.93759 18.8488 9.39011 18.2863C8.84266 17.7237 8.40921 17.0568 8.11376 16.3238C7.81832 15.5909 7.66646 14.806 7.66646 14.0136C7.66646 13.2212 7.81832 12.4363 8.11376 11.7034C8.40921 10.9704 8.84266 10.3035 9.39011 9.74095C9.93759 9.17838 10.5884 8.73131 11.3057 8.42601C12.023 8.1207 12.7923 7.96336 13.5696 7.96336C15.6867 7.96336 17.4029 6.19291 17.4029 4.00896C17.4029 1.825 15.6867 0.0545521 13.5696 0.0545521C11.7897 0.0545521 10.0269 0.414766 8.3817 1.11502C6.73644 1.81528 5.24055 2.84208 3.97981 4.13755C2.71903 5.43306 1.71813 6.97189 1.03498 8.6666C0.351816 10.3613 0 12.1783 0 14.0136C0 15.8489 0.351816 17.6659 1.03498 19.3606C1.71813 21.0553 2.71903 22.5941 3.97981 23.8897C5.24054 25.1851 6.73644 26.2119 8.38169 26.9122Z" fill="url(#paint0_linear_40_116097)"/>
<path fill-rule="evenodd" clip-rule="evenodd" d="M9.88965 4.0079C9.88965 1.8246 11.6053 0.0546875 13.7217 0.0546875C17.3633 0.0546875 20.8277 1.67628 23.2259 4.50336L34.7535 18.0925C35.7704 19.2913 37.2393 19.9789 38.7835 19.9789C40.8999 19.9789 42.6155 21.7488 42.6155 23.9321C42.6155 26.1154 40.8999 27.8853 38.7835 27.8853C35.0295 27.8853 31.4582 26.2136 28.986 23.2993L17.4584 9.71013C16.5155 8.59865 15.1534 7.96111 13.7217 7.96111C11.6053 7.96111 9.88965 6.19119 9.88965 4.0079Z" fill="url(#paint1_linear_40_116097)"/>
<path fill-rule="evenodd" clip-rule="evenodd" d="M42.5303 4.02408C42.5303 1.83184 40.806 0.0546877 38.679 0.0546878C35.027 0.0546882 31.5515 1.67413 29.139 4.49996L17.4665 18.1724C16.4418 19.3726 14.9657 20.0604 13.4146 20.0604C11.2876 20.0604 9.5633 21.8376 9.5633 24.0298C9.5633 26.222 11.2876 27.9992 13.4146 27.9992C17.1794 27.9992 20.7622 26.3298 23.2491 23.4167L34.9217 9.74423C35.8718 8.63128 37.2407 7.99347 38.679 7.99347C40.806 7.99347 42.5303 6.21631 42.5303 4.02408Z" fill="url(#paint2_linear_40_116097)"/>
<path d="M161.114 12.4836L169 23.0216H165.7L159.596 14.5912H159.45L153.433 23.0216H150.279L158.106 12.5137L150.279 2.00586H153.609L159.596 10.376H159.742L165.7 2.00586H168.912L161.114 12.4836Z" fill="white"/>
<path d="M142.441 7.36328C144.057 7.36328 145.333 7.92531 146.267 9.04936C147.202 10.1734 147.669 11.5785 147.669 13.2646V23.0197H145.011V13.5656C145.011 11.1168 143.941 9.8924 141.799 9.8924C140.105 9.8924 138.508 10.8559 137.009 12.7828V23.0197H134.352V7.66437H136.688L137.009 9.59132V10.0429H137.068C138.645 8.2565 140.436 7.36328 142.441 7.36328Z" fill="white"/>
<path d="M115.678 15.3421C115.678 12.9534 116.359 11.0265 117.722 9.56121C119.085 8.09592 120.886 7.36328 123.125 7.36328C125.384 7.36328 127.194 8.09592 128.557 9.56121C129.94 11.0265 130.631 12.9534 130.631 15.3421C130.631 17.7307 129.94 19.6576 128.557 21.1229C127.194 22.5882 125.384 23.3208 123.125 23.3208C120.886 23.3208 119.085 22.5882 117.722 21.1229C116.359 19.6576 115.678 17.7307 115.678 15.3421ZM119.766 19.4669C120.74 20.3702 121.869 20.8218 123.154 20.8218C124.439 20.8218 125.559 20.3702 126.513 19.4669C127.486 18.5436 127.973 17.1686 127.973 15.3421C127.973 13.4954 127.486 12.1204 126.513 11.2172C125.559 10.3139 124.439 9.86229 123.154 9.86229C121.869 9.86229 120.74 10.3139 119.766 11.2172C118.812 12.1204 118.335 13.4954 118.335 15.3421C118.335 17.1686 118.812 18.5436 119.766 19.4669Z" fill="white"/>
<path d="M109.199 23.0187V7.6633H111.857V23.0187H109.199ZM111.973 1.46094V4.41158H109.111V1.46094H111.973Z" fill="white"/>
<path d="M105.73 10.0139H101.496V19.1067C101.496 19.9498 101.72 20.4716 102.167 20.6724C102.537 20.8329 103.014 20.9132 103.598 20.9132C104.183 20.9132 104.825 20.7526 105.526 20.4315H105.73V22.6595C104.913 23.1011 104.037 23.3219 103.102 23.3219C100.259 23.3219 98.838 21.9971 98.838 19.3476V10.0139H96.0635V9.83327L101.496 4.35352V7.66546H105.73V10.0139Z" fill="white"/>
<path d="M92.0367 21.153C90.6349 22.5982 88.9896 23.3208 87.101 23.3208C85.2124 23.3208 83.5769 22.5781 82.1945 21.0928H82.1069V29.9447H79.4492V7.66437H81.7856L82.1069 9.59132H82.1945C83.5769 8.10596 85.2124 7.36328 87.101 7.36328C88.9896 7.36328 90.6349 8.08589 92.0367 9.5311C93.458 10.9763 94.1687 12.9133 94.1687 15.3421C94.1687 17.7708 93.458 19.7078 92.0367 21.153ZM86.7213 9.92251C84.969 9.92251 83.4309 10.6752 82.1069 12.1807V18.5035C83.4309 20.0089 84.969 20.7616 86.7213 20.7616C88.1621 20.7616 89.3206 20.2899 90.1968 19.3465C91.0729 18.4031 91.511 17.0683 91.511 15.3421C91.511 13.6158 91.0729 12.281 90.1968 11.3376C89.3206 10.3942 88.1621 9.92251 86.7213 9.92251Z" fill="white"/>
<path d="M57.9383 4.71203C59.788 2.70479 62.2509 1.70117 65.3272 1.70117C68.4035 1.70117 70.8665 2.70479 72.7162 4.71203C74.5658 6.71926 75.5199 9.31864 75.5783 12.5101C75.5199 15.7017 74.5658 18.301 72.7162 20.3083C70.8665 22.3155 68.4035 23.3191 65.3272 23.3191C62.2509 23.3191 59.788 22.3155 57.9383 20.3083C56.0886 18.301 55.1346 15.7017 55.0762 12.5101C55.1346 9.31864 56.0886 6.71926 57.9383 4.71203ZM57.7339 12.5101C57.7339 14.8988 58.4056 16.8759 59.749 18.4415C61.1119 19.9871 62.9616 20.7599 65.298 20.7599C67.6539 20.7599 69.5133 19.9871 70.8762 18.4415C72.2392 16.8759 72.9206 14.8988 72.9206 12.5101C72.9206 10.1215 72.2392 8.15444 70.8762 6.60887C69.5133 5.04322 67.6539 4.2604 65.298 4.2604C62.9616 4.2604 61.1119 5.04322 59.749 6.60887C58.4056 8.15444 57.7339 10.1215 57.7339 12.5101Z" fill="white"/>
<defs>
<linearGradient id="paint0_linear_40_116097" x1="8.72023" y1="34.0229" x2="40.7403" y2="-20.1462" gradientUnits="userSpaceOnUse">
<stop offset="0.207354" stop-color="#57D2B5"/>
<stop offset="0.375699" stop-color="#4E3FFF"/>
</linearGradient>
<linearGradient id="paint1_linear_40_116097" x1="36.7801" y1="23.7652" x2="7.90737" y2="-6.82284" gradientUnits="userSpaceOnUse">
<stop stop-color="#FF5B5B"/>
<stop offset="0.670474" stop-color="#4E3FFF"/>
</linearGradient>
<linearGradient id="paint2_linear_40_116097" x1="72.4374" y1="-10.9845" x2="0.667667" y2="48.0922" gradientUnits="userSpaceOnUse">
<stop offset="0.182292" stop-color="#10CA00"/>
<stop offset="1" stop-color="#73D4FE"/>
</linearGradient>
</defs>
</svg>
