<svg width="820" height="517" viewBox="0 0 820 517" fill="none" xmlns="http://www.w3.org/2000/svg">
<g clip-path="url(#clip0_3592_52108)">
<rect width="820" height="517" fill="#010924"/>
<g filter="url(#filter0_f_3592_52108)">
<circle cx="526.5" cy="196.5" r="110.5" fill="#FD5555" fill-opacity="0.4"/>
</g>
<g filter="url(#filter1_f_3592_52108)">
<ellipse cx="620" cy="185.5" rx="66" ry="65.5" fill="#054BFF" fill-opacity="0.4"/>
</g>
<g filter="url(#filter2_f_3592_52108)">
<circle cx="225.5" cy="299.5" r="94.5" fill="#199734" fill-opacity="0.4"/>
</g>
<rect x="250.659" y="124.377" width="357.699" height="288.601" rx="14" fill="#010924" fill-opacity="0.7" stroke="url(#paint0_linear_3592_52108)" stroke-width="5"/>
<rect x="351.659" y="181.697" width="51.1467" height="207.1" rx="12" fill="url(#paint1_linear_3592_52108)" fill-opacity="0.5"/>
<rect x="355.187" y="296.117" width="44.533" height="7.11182" rx="3.55591" fill="url(#paint2_linear_3592_52108)"/>
<rect x="355.187" y="311.875" width="44.533" height="7.11182" rx="3.55591" fill="url(#paint3_linear_3592_52108)"/>
<rect x="355.187" y="327.07" width="44.533" height="7.11182" rx="3.55591" fill="url(#paint4_linear_3592_52108)"/>
<rect x="355.187" y="342.264" width="44.533" height="7.11182" rx="3.55591" fill="url(#paint5_linear_3592_52108)"/>
<rect x="355.187" y="356.898" width="44.533" height="7.11182" rx="3.55591" fill="url(#paint6_linear_3592_52108)"/>
<rect x="355.187" y="372.09" width="44.533" height="7.11182" rx="3.55591" fill="url(#paint7_linear_3592_52108)"/>
<rect x="404.569" y="181.697" width="51.1467" height="207.1" rx="12" fill="black" fill-opacity="0.2"/>
<rect x="407.655" y="280.75" width="44.533" height="6.75324" rx="3.37662" fill="url(#paint8_linear_3592_52108)"/>
<rect x="407.655" y="235.164" width="44.533" height="6.75324" rx="3.37662" fill="url(#paint9_linear_3592_52108)"/>
<rect x="407.655" y="250.357" width="44.533" height="6.75324" rx="3.37662" fill="url(#paint10_linear_3592_52108)"/>
<rect x="407.655" y="205.334" width="44.533" height="6.75324" rx="3.37662" fill="url(#paint11_linear_3592_52108)"/>
<rect x="407.655" y="190.145" width="44.533" height="6.75324" rx="3.37662" fill="url(#paint12_linear_3592_52108)"/>
<rect x="407.656" y="296.504" width="44.533" height="6.75324" rx="3.37662" fill="url(#paint13_linear_3592_52108)"/>
<rect x="407.655" y="326.893" width="44.533" height="6.75324" rx="3.37662" fill="url(#paint14_linear_3592_52108)"/>
<rect x="407.655" y="371.918" width="44.533" height="6.75324" rx="3.37662" fill="url(#paint15_linear_3592_52108)"/>
<rect x="457.481" y="181.697" width="51.1467" height="207.1" rx="12" fill="url(#paint16_linear_3592_52108)" fill-opacity="0.6"/>
<rect x="505.099" y="273.223" width="44.533" height="7.11182" rx="3.55591" transform="rotate(-180 505.099 273.223)" fill="url(#paint17_linear_3592_52108)"/>
<rect x="505.1" y="257.467" width="44.533" height="7.11182" rx="3.55591" transform="rotate(-180 505.1 257.467)" fill="url(#paint18_linear_3592_52108)"/>
<rect x="505.099" y="242.27" width="44.533" height="7.11182" rx="3.55591" transform="rotate(-180 505.099 242.27)" fill="url(#paint19_linear_3592_52108)"/>
<rect x="505.099" y="227.639" width="44.533" height="7.11182" rx="3.55591" transform="rotate(-180 505.099 227.639)" fill="url(#paint20_linear_3592_52108)"/>
<rect x="505.099" y="212.439" width="44.533" height="7.11182" rx="3.55591" transform="rotate(-180 505.099 212.439)" fill="url(#paint21_linear_3592_52108)"/>
<rect x="505.099" y="197.25" width="44.533" height="7.11182" rx="3.55591" transform="rotate(-180 505.099 197.25)" fill="url(#paint22_linear_3592_52108)"/>
<rect x="303.158" y="261.051" width="150.795" height="15.7576" rx="4" fill="#296C34" fill-opacity="0.3"/>
<rect x="303.158" y="216.029" width="150.795" height="15.7576" rx="4" fill="#296C34" fill-opacity="0.3"/>
<rect x="407.655" y="265.549" width="44.533" height="6.75324" rx="3.37662" fill="url(#paint23_linear_3592_52108)"/>
<rect x="407.656" y="342.092" width="44.533" height="6.75324" rx="3.37662" fill="url(#paint24_linear_3592_52108)"/>
<rect x="305.803" y="263.863" width="42.3283" height="10.1299" rx="3" fill="url(#paint25_linear_3592_52108)"/>
<rect x="305.803" y="218.842" width="42.3283" height="10.1299" rx="3" fill="url(#paint26_linear_3592_52108)"/>
<rect x="556.688" y="368.535" width="150.795" height="15.7576" rx="4" transform="rotate(-180 556.688 368.535)" fill="#6C2929" fill-opacity="0.3"/>
<rect x="554.043" y="365.721" width="42.3283" height="10.1299" rx="3" transform="rotate(-180 554.043 365.721)" fill="url(#paint27_linear_3592_52108)"/>
<rect x="556.688" y="323.518" width="150.795" height="15.7576" rx="4" transform="rotate(-180 556.688 323.518)" fill="#6C2929" fill-opacity="0.3"/>
<rect x="554.042" y="320.703" width="42.3283" height="10.1299" rx="3" transform="rotate(-180 554.042 320.703)" fill="url(#paint28_linear_3592_52108)"/>
<rect x="407.655" y="220.531" width="44.533" height="6.75324" rx="3.37662" fill="url(#paint29_linear_3592_52108)"/>
<rect x="407.655" y="357.287" width="44.533" height="6.75324" rx="3.37662" fill="url(#paint30_linear_3592_52108)"/>
<rect x="407.655" y="311.699" width="44.533" height="6.75324" rx="3.37662" fill="url(#paint31_linear_3592_52108)"/>
<rect x="211.509" y="183.211" width="56.0573" height="20.7556" rx="4" fill="#211C4F"/>
<rect x="212.009" y="183.711" width="55.0573" height="19.7556" rx="3.5" stroke="white" stroke-opacity="0.2"/>
<path d="M230.86 197.165C230.149 197.165 229.5 197 228.913 196.67C228.327 196.333 227.861 195.867 227.516 195.273C227.179 194.672 227.01 193.997 227.01 193.249C227.01 192.501 227.179 191.83 227.516 191.236C227.861 190.635 228.327 190.169 228.913 189.839C229.5 189.502 230.149 189.333 230.86 189.333C231.579 189.333 232.232 189.502 232.818 189.839C233.405 190.169 233.867 190.631 234.204 191.225C234.542 191.819 234.71 192.494 234.71 193.249C234.71 194.004 234.542 194.679 234.204 195.273C233.867 195.867 233.405 196.333 232.818 196.67C232.232 197 231.579 197.165 230.86 197.165ZM230.86 196.296C231.396 196.296 231.876 196.171 232.301 195.922C232.734 195.673 233.071 195.317 233.313 194.855C233.563 194.393 233.687 193.858 233.687 193.249C233.687 192.633 233.563 192.098 233.313 191.643C233.071 191.181 232.738 190.825 232.312 190.576C231.887 190.327 231.403 190.202 230.86 190.202C230.318 190.202 229.834 190.327 229.408 190.576C228.983 190.825 228.646 191.181 228.396 191.643C228.154 192.098 228.033 192.633 228.033 193.249C228.033 193.858 228.154 194.393 228.396 194.855C228.646 195.317 228.983 195.673 229.408 195.922C229.841 196.171 230.325 196.296 230.86 196.296ZM235.548 193.249C235.548 192.501 235.716 191.83 236.054 191.236C236.391 190.635 236.849 190.165 237.429 189.828C238.015 189.491 238.664 189.322 239.376 189.322C240.212 189.322 240.941 189.524 241.565 189.927C242.188 190.33 242.643 190.902 242.929 191.643H241.73C241.517 191.181 241.209 190.825 240.806 190.576C240.41 190.327 239.933 190.202 239.376 190.202C238.84 190.202 238.36 190.327 237.935 190.576C237.509 190.825 237.176 191.181 236.934 191.643C236.692 192.098 236.571 192.633 236.571 193.249C236.571 193.858 236.692 194.393 236.934 194.855C237.176 195.31 237.509 195.662 237.935 195.911C238.36 196.16 238.84 196.285 239.376 196.285C239.933 196.285 240.41 196.164 240.806 195.922C241.209 195.673 241.517 195.317 241.73 194.855H242.929C242.643 195.588 242.188 196.157 241.565 196.56C240.941 196.956 240.212 197.154 239.376 197.154C238.664 197.154 238.015 196.989 237.429 196.659C236.849 196.322 236.391 195.856 236.054 195.262C235.716 194.668 235.548 193.997 235.548 193.249ZM247.785 197.165C247.074 197.165 246.425 197 245.838 196.67C245.251 196.333 244.786 195.867 244.441 195.273C244.104 194.672 243.935 193.997 243.935 193.249C243.935 192.501 244.104 191.83 244.441 191.236C244.786 190.635 245.251 190.169 245.838 189.839C246.425 189.502 247.074 189.333 247.785 189.333C248.504 189.333 249.156 189.502 249.743 189.839C250.33 190.169 250.792 190.631 251.129 191.225C251.466 191.819 251.635 192.494 251.635 193.249C251.635 194.004 251.466 194.679 251.129 195.273C250.792 195.867 250.33 196.333 249.743 196.67C249.156 197 248.504 197.165 247.785 197.165ZM247.785 196.296C248.32 196.296 248.801 196.171 249.226 195.922C249.659 195.673 249.996 195.317 250.238 194.855C250.487 194.393 250.612 193.858 250.612 193.249C250.612 192.633 250.487 192.098 250.238 191.643C249.996 191.181 249.662 190.825 249.237 190.576C248.812 190.327 248.328 190.202 247.785 190.202C247.242 190.202 246.758 190.327 246.333 190.576C245.908 190.825 245.57 191.181 245.321 191.643C245.079 192.098 244.958 192.633 244.958 193.249C244.958 193.858 245.079 194.393 245.321 194.855C245.57 195.317 245.908 195.673 246.333 195.922C246.766 196.171 247.25 196.296 247.785 196.296Z" fill="white"/>
<rect x="569.993" y="255.957" width="86.3104" height="20.4654" rx="4" fill="#3F1C4F"/>
<rect x="570.493" y="256.457" width="85.3104" height="19.4654" rx="3.5" stroke="white" stroke-opacity="0.2"/>
<path d="M588.772 262.077V269.689H587.771V264.013L585.241 269.689H584.537L581.996 264.002V269.689H580.995V262.077H582.073L584.889 268.369L587.705 262.077H588.772ZM595.706 263.661V269.689H594.705V268.798C594.514 269.106 594.247 269.348 593.902 269.524C593.565 269.693 593.191 269.777 592.78 269.777C592.311 269.777 591.889 269.682 591.515 269.491C591.141 269.293 590.844 269 590.624 268.611C590.411 268.223 590.305 267.75 590.305 267.192V263.661H591.295V267.06C591.295 267.654 591.445 268.113 591.746 268.435C592.047 268.751 592.457 268.908 592.978 268.908C593.513 268.908 593.935 268.743 594.243 268.413C594.551 268.083 594.705 267.603 594.705 266.972V263.661H595.706ZM598.287 261.549V269.689H597.286V261.549H598.287ZM601.104 264.486V268.039C601.104 268.333 601.167 268.542 601.291 268.666C601.416 268.784 601.632 268.842 601.94 268.842H602.677V269.689H601.775C601.218 269.689 600.8 269.561 600.521 269.304C600.243 269.048 600.103 268.626 600.103 268.039V264.486H599.322V263.661H600.103V262.143H601.104V263.661H602.677V264.486H601.104ZM604.297 262.682C604.106 262.682 603.945 262.616 603.813 262.484C603.681 262.352 603.615 262.191 603.615 262C603.615 261.81 603.681 261.648 603.813 261.516C603.945 261.384 604.106 261.318 604.297 261.318C604.48 261.318 604.634 261.384 604.759 261.516C604.891 261.648 604.957 261.81 604.957 262C604.957 262.191 604.891 262.352 604.759 262.484C604.634 262.616 604.48 262.682 604.297 262.682ZM604.781 263.661V269.689H603.78V263.661H604.781ZM610.201 268.875H612.885V269.689H609.2V262.022H610.201V268.875ZM613.464 266.653C613.464 266.037 613.588 265.498 613.838 265.036C614.087 264.567 614.428 264.204 614.861 263.947C615.301 263.691 615.788 263.562 616.324 263.562C616.852 263.562 617.31 263.676 617.699 263.903C618.087 264.131 618.377 264.417 618.568 264.761V263.661H619.58V269.689H618.568V268.567C618.37 268.919 618.073 269.213 617.677 269.447C617.288 269.675 616.833 269.788 616.313 269.788C615.777 269.788 615.293 269.656 614.861 269.392C614.428 269.128 614.087 268.758 613.838 268.281C613.588 267.805 613.464 267.262 613.464 266.653ZM618.568 266.664C618.568 266.21 618.476 265.814 618.293 265.476C618.109 265.139 617.86 264.882 617.545 264.706C617.237 264.523 616.896 264.431 616.522 264.431C616.148 264.431 615.807 264.519 615.499 264.695C615.191 264.871 614.945 265.128 614.762 265.465C614.578 265.803 614.487 266.199 614.487 266.653C614.487 267.115 614.578 267.519 614.762 267.863C614.945 268.201 615.191 268.461 615.499 268.644C615.807 268.82 616.148 268.908 616.522 268.908C616.896 268.908 617.237 268.82 617.545 268.644C617.86 268.461 618.109 268.201 618.293 267.863C618.476 267.519 618.568 267.119 618.568 266.664ZM620.787 266.653C620.787 266.037 620.912 265.498 621.161 265.036C621.411 264.567 621.752 264.204 622.184 263.947C622.624 263.691 623.116 263.562 623.658 263.562C624.128 263.562 624.564 263.672 624.967 263.892C625.371 264.105 625.679 264.387 625.891 264.739V261.549H626.903V269.689H625.891V268.556C625.693 268.916 625.4 269.213 625.011 269.447C624.623 269.675 624.168 269.788 623.647 269.788C623.112 269.788 622.624 269.656 622.184 269.392C621.752 269.128 621.411 268.758 621.161 268.281C620.912 267.805 620.787 267.262 620.787 266.653ZM625.891 266.664C625.891 266.21 625.8 265.814 625.616 265.476C625.433 265.139 625.184 264.882 624.868 264.706C624.56 264.523 624.219 264.431 623.845 264.431C623.471 264.431 623.13 264.519 622.822 264.695C622.514 264.871 622.269 265.128 622.085 265.465C621.902 265.803 621.81 266.199 621.81 266.653C621.81 267.115 621.902 267.519 622.085 267.863C622.269 268.201 622.514 268.461 622.822 268.644C623.13 268.82 623.471 268.908 623.845 268.908C624.219 268.908 624.56 268.82 624.868 268.644C625.184 268.461 625.433 268.201 625.616 267.863C625.8 267.519 625.891 267.119 625.891 266.664ZM628.111 266.653C628.111 266.037 628.236 265.498 628.485 265.036C628.734 264.567 629.075 264.204 629.508 263.947C629.948 263.691 630.439 263.562 630.982 263.562C631.451 263.562 631.888 263.672 632.291 263.892C632.694 264.105 633.002 264.387 633.215 264.739V261.549H634.227V269.689H633.215V268.556C633.017 268.916 632.724 269.213 632.335 269.447C631.946 269.675 631.492 269.788 630.971 269.788C630.436 269.788 629.948 269.656 629.508 269.392C629.075 269.128 628.734 268.758 628.485 268.281C628.236 267.805 628.111 267.262 628.111 266.653ZM633.215 266.664C633.215 266.21 633.123 265.814 632.94 265.476C632.757 265.139 632.507 264.882 632.192 264.706C631.884 264.523 631.543 264.431 631.169 264.431C630.795 264.431 630.454 264.519 630.146 264.695C629.838 264.871 629.592 265.128 629.409 265.465C629.226 265.803 629.134 266.199 629.134 266.653C629.134 267.115 629.226 267.519 629.409 267.863C629.592 268.201 629.838 268.461 630.146 268.644C630.454 268.82 630.795 268.908 631.169 268.908C631.543 268.908 631.884 268.82 632.192 268.644C632.507 268.461 632.757 268.201 632.94 267.863C633.123 267.519 633.215 267.119 633.215 266.664ZM641.309 266.444C641.309 266.635 641.298 266.837 641.276 267.049H636.458C636.494 267.643 636.696 268.109 637.063 268.446C637.437 268.776 637.888 268.941 638.416 268.941C638.848 268.941 639.208 268.842 639.494 268.644C639.787 268.439 639.992 268.168 640.11 267.83H641.188C641.026 268.41 640.704 268.883 640.22 269.249C639.736 269.609 639.134 269.788 638.416 269.788C637.844 269.788 637.33 269.66 636.876 269.403C636.428 269.147 636.076 268.784 635.82 268.314C635.563 267.838 635.435 267.288 635.435 266.664C635.435 266.041 635.559 265.495 635.809 265.025C636.058 264.556 636.406 264.197 636.854 263.947C637.308 263.691 637.829 263.562 638.416 263.562C638.988 263.562 639.494 263.687 639.934 263.936C640.374 264.186 640.711 264.53 640.946 264.97C641.188 265.403 641.309 265.894 641.309 266.444ZM640.275 266.235C640.275 265.854 640.19 265.528 640.022 265.256C639.853 264.978 639.622 264.769 639.329 264.629C639.043 264.483 638.724 264.409 638.372 264.409C637.866 264.409 637.433 264.571 637.074 264.893C636.722 265.216 636.52 265.663 636.469 266.235H640.275ZM643.521 264.64C643.697 264.296 643.946 264.028 644.269 263.837C644.599 263.647 644.998 263.551 645.468 263.551V264.585H645.204C644.082 264.585 643.521 265.194 643.521 266.411V269.689H642.52V263.661H643.521V264.64Z" fill="white"/>
<rect x="583.444" y="368.285" width="108.555" height="20.4654" rx="4" fill="#433918"/>
<rect x="583.944" y="368.785" width="107.555" height="19.4654" rx="3.5" stroke="white" stroke-opacity="0.2"/>
<path d="M593.5 382.095C592.994 382.095 592.539 382.007 592.136 381.831C591.74 381.647 591.428 381.398 591.201 381.083C590.974 380.76 590.856 380.39 590.849 379.972H591.916C591.953 380.331 592.099 380.635 592.356 380.885C592.62 381.127 593.001 381.248 593.5 381.248C593.977 381.248 594.351 381.13 594.622 380.896C594.901 380.654 595.04 380.346 595.04 379.972C595.04 379.678 594.959 379.44 594.798 379.257C594.637 379.073 594.435 378.934 594.193 378.839C593.951 378.743 593.625 378.641 593.214 378.531C592.708 378.399 592.301 378.267 591.993 378.135C591.692 378.003 591.432 377.797 591.212 377.519C590.999 377.233 590.893 376.851 590.893 376.375C590.893 375.957 590.999 375.586 591.212 375.264C591.425 374.941 591.722 374.692 592.103 374.516C592.492 374.34 592.935 374.252 593.434 374.252C594.153 374.252 594.739 374.431 595.194 374.791C595.656 375.15 595.916 375.627 595.975 376.221H594.875C594.838 375.927 594.684 375.671 594.413 375.451C594.142 375.223 593.782 375.11 593.335 375.11C592.917 375.11 592.576 375.22 592.312 375.44C592.048 375.652 591.916 375.953 591.916 376.342C591.916 376.62 591.993 376.848 592.147 377.024C592.308 377.2 592.503 377.335 592.73 377.431C592.965 377.519 593.291 377.621 593.709 377.739C594.215 377.878 594.622 378.017 594.93 378.157C595.238 378.289 595.502 378.498 595.722 378.784C595.942 379.062 596.052 379.444 596.052 379.928C596.052 380.302 595.953 380.654 595.755 380.984C595.557 381.314 595.264 381.581 594.875 381.787C594.486 381.992 594.028 382.095 593.5 382.095ZM597.932 375.011C597.741 375.011 597.58 374.945 597.448 374.813C597.316 374.681 597.25 374.519 597.25 374.329C597.25 374.138 597.316 373.977 597.448 373.845C597.58 373.713 597.741 373.647 597.932 373.647C598.115 373.647 598.269 373.713 598.394 373.845C598.526 373.977 598.592 374.138 598.592 374.329C598.592 374.519 598.526 374.681 598.394 374.813C598.269 374.945 598.115 375.011 597.932 375.011ZM598.416 375.99V382.018H597.415V375.99H598.416ZM602.949 375.88C603.682 375.88 604.276 376.103 604.731 376.551C605.186 376.991 605.413 377.629 605.413 378.465V382.018H604.423V378.608C604.423 378.006 604.273 377.548 603.972 377.233C603.671 376.91 603.261 376.749 602.74 376.749C602.212 376.749 601.79 376.914 601.475 377.244C601.167 377.574 601.013 378.054 601.013 378.685V382.018H600.012V375.99H601.013V376.848C601.211 376.54 601.479 376.301 601.816 376.133C602.161 375.964 602.538 375.88 602.949 375.88ZM609.424 375.891C609.945 375.891 610.399 376.004 610.788 376.232C611.184 376.459 611.477 376.745 611.668 377.09V375.99H612.68V382.15C612.68 382.7 612.563 383.187 612.328 383.613C612.093 384.045 611.756 384.383 611.316 384.625C610.883 384.867 610.377 384.988 609.798 384.988C609.006 384.988 608.346 384.801 607.818 384.427C607.29 384.053 606.978 383.543 606.883 382.898H607.873C607.983 383.264 608.21 383.558 608.555 383.778C608.9 384.005 609.314 384.119 609.798 384.119C610.348 384.119 610.795 383.946 611.14 383.602C611.492 383.257 611.668 382.773 611.668 382.15V380.885C611.47 381.237 611.177 381.53 610.788 381.765C610.399 381.999 609.945 382.117 609.424 382.117C608.889 382.117 608.401 381.985 607.961 381.721C607.528 381.457 607.187 381.086 606.938 380.61C606.689 380.133 606.564 379.59 606.564 378.982C606.564 378.366 606.689 377.827 606.938 377.365C607.187 376.895 607.528 376.532 607.961 376.276C608.401 376.019 608.889 375.891 609.424 375.891ZM611.668 378.993C611.668 378.538 611.576 378.142 611.393 377.805C611.21 377.467 610.96 377.211 610.645 377.035C610.337 376.851 609.996 376.76 609.622 376.76C609.248 376.76 608.907 376.848 608.599 377.024C608.291 377.2 608.045 377.456 607.862 377.794C607.679 378.131 607.587 378.527 607.587 378.982C607.587 379.444 607.679 379.847 607.862 380.192C608.045 380.529 608.291 380.789 608.599 380.973C608.907 381.149 609.248 381.237 609.622 381.237C609.996 381.237 610.337 381.149 610.645 380.973C610.96 380.789 611.21 380.529 611.393 380.192C611.576 379.847 611.668 379.447 611.668 378.993ZM615.263 373.878V382.018H614.262V373.878H615.263ZM622.359 378.773C622.359 378.963 622.348 379.165 622.326 379.378H617.508C617.544 379.972 617.746 380.437 618.113 380.775C618.487 381.105 618.938 381.27 619.466 381.27C619.898 381.27 620.258 381.171 620.544 380.973C620.837 380.767 621.042 380.496 621.16 380.159H622.238C622.076 380.738 621.754 381.211 621.27 381.578C620.786 381.937 620.184 382.117 619.466 382.117C618.894 382.117 618.38 381.988 617.926 381.732C617.478 381.475 617.126 381.112 616.87 380.643C616.613 380.166 616.485 379.616 616.485 378.993C616.485 378.369 616.609 377.823 616.859 377.354C617.108 376.884 617.456 376.525 617.904 376.276C618.358 376.019 618.879 375.891 619.466 375.891C620.038 375.891 620.544 376.015 620.984 376.265C621.424 376.514 621.761 376.859 621.996 377.299C622.238 377.731 622.359 378.223 622.359 378.773ZM621.325 378.564C621.325 378.182 621.24 377.856 621.072 377.585C620.903 377.306 620.672 377.097 620.379 376.958C620.093 376.811 619.774 376.738 619.422 376.738C618.916 376.738 618.483 376.899 618.124 377.222C617.772 377.544 617.57 377.992 617.519 378.564H621.325ZM626.019 378.179C626.019 377.431 626.187 376.76 626.525 376.166C626.862 375.564 627.32 375.095 627.9 374.758C628.486 374.42 629.135 374.252 629.847 374.252C630.683 374.252 631.412 374.453 632.036 374.857C632.659 375.26 633.114 375.832 633.4 376.573H632.201C631.988 376.111 631.68 375.755 631.277 375.506C630.881 375.256 630.404 375.132 629.847 375.132C629.311 375.132 628.831 375.256 628.406 375.506C627.98 375.755 627.647 376.111 627.405 376.573C627.163 377.027 627.042 377.563 627.042 378.179C627.042 378.787 627.163 379.323 627.405 379.785C627.647 380.239 627.98 380.591 628.406 380.841C628.831 381.09 629.311 381.215 629.847 381.215C630.404 381.215 630.881 381.094 631.277 380.852C631.68 380.602 631.988 380.247 632.201 379.785H633.4C633.114 380.518 632.659 381.086 632.036 381.49C631.412 381.886 630.683 382.084 629.847 382.084C629.135 382.084 628.486 381.919 627.9 381.589C627.32 381.251 626.862 380.786 626.525 380.192C626.187 379.598 626.019 378.927 626.019 378.179ZM635.781 373.878V382.018H634.78V373.878H635.781ZM637.894 375.011C637.703 375.011 637.542 374.945 637.41 374.813C637.278 374.681 637.212 374.519 637.212 374.329C637.212 374.138 637.278 373.977 637.41 373.845C637.542 373.713 637.703 373.647 637.894 373.647C638.077 373.647 638.231 373.713 638.356 373.845C638.488 373.977 638.554 374.138 638.554 374.329C638.554 374.519 638.488 374.681 638.356 374.813C638.231 374.945 638.077 375.011 637.894 375.011ZM638.378 375.99V382.018H637.377V375.99H638.378ZM639.6 378.993C639.6 378.369 639.724 377.827 639.974 377.365C640.223 376.895 640.568 376.532 641.008 376.276C641.455 376.019 641.965 375.891 642.537 375.891C643.277 375.891 643.886 376.07 644.363 376.43C644.847 376.789 645.166 377.288 645.32 377.926H644.242C644.139 377.559 643.937 377.269 643.637 377.057C643.343 376.844 642.977 376.738 642.537 376.738C641.965 376.738 641.503 376.936 641.151 377.332C640.799 377.72 640.623 378.274 640.623 378.993C640.623 379.719 640.799 380.28 641.151 380.676C641.503 381.072 641.965 381.27 642.537 381.27C642.977 381.27 643.343 381.167 643.637 380.962C643.93 380.756 644.132 380.463 644.242 380.082H645.32C645.158 380.698 644.836 381.193 644.352 381.567C643.868 381.933 643.263 382.117 642.537 382.117C641.965 382.117 641.455 381.988 641.008 381.732C640.568 381.475 640.223 381.112 639.974 380.643C639.724 380.173 639.6 379.623 639.6 378.993ZM649.911 382.018L647.546 379.356V382.018H646.545V373.878H647.546V378.663L649.867 375.99H651.264L648.426 378.993L651.275 382.018H649.911ZM658.395 382.095C657.684 382.095 657.035 381.93 656.448 381.6C655.862 381.262 655.396 380.797 655.051 380.203C654.714 379.601 654.545 378.927 654.545 378.179C654.545 377.431 654.714 376.76 655.051 376.166C655.396 375.564 655.862 375.099 656.448 374.769C657.035 374.431 657.684 374.263 658.395 374.263C659.114 374.263 659.767 374.431 660.353 374.769C660.94 375.099 661.402 375.561 661.739 376.155C662.077 376.749 662.245 377.423 662.245 378.179C662.245 378.934 662.077 379.609 661.739 380.203C661.402 380.797 660.94 381.262 660.353 381.6C659.767 381.93 659.114 382.095 658.395 382.095ZM658.395 381.226C658.931 381.226 659.411 381.101 659.836 380.852C660.269 380.602 660.606 380.247 660.848 379.785C661.098 379.323 661.222 378.787 661.222 378.179C661.222 377.563 661.098 377.027 660.848 376.573C660.606 376.111 660.273 375.755 659.847 375.506C659.422 375.256 658.938 375.132 658.395 375.132C657.853 375.132 657.369 375.256 656.943 375.506C656.518 375.755 656.181 376.111 655.931 376.573C655.689 377.027 655.568 377.563 655.568 378.179C655.568 378.787 655.689 379.323 655.931 379.785C656.181 380.247 656.518 380.602 656.943 380.852C657.376 381.101 657.86 381.226 658.395 381.226ZM664.458 376.969C664.634 376.624 664.883 376.356 665.206 376.166C665.536 375.975 665.935 375.88 666.405 375.88V376.914H666.141C665.019 376.914 664.458 377.522 664.458 378.74V382.018H663.457V375.99H664.458V376.969ZM667.076 378.982C667.076 378.366 667.201 377.827 667.45 377.365C667.7 376.895 668.041 376.532 668.473 376.276C668.913 376.019 669.405 375.891 669.947 375.891C670.417 375.891 670.853 376.001 671.256 376.221C671.66 376.433 671.968 376.716 672.18 377.068V373.878H673.192V382.018H672.18V380.885C671.982 381.244 671.689 381.541 671.3 381.776C670.912 382.003 670.457 382.117 669.936 382.117C669.401 382.117 668.913 381.985 668.473 381.721C668.041 381.457 667.7 381.086 667.45 380.61C667.201 380.133 667.076 379.59 667.076 378.982ZM672.18 378.993C672.18 378.538 672.089 378.142 671.905 377.805C671.722 377.467 671.473 377.211 671.157 377.035C670.849 376.851 670.508 376.76 670.134 376.76C669.76 376.76 669.419 376.848 669.111 377.024C668.803 377.2 668.558 377.456 668.374 377.794C668.191 378.131 668.099 378.527 668.099 378.982C668.099 379.444 668.191 379.847 668.374 380.192C668.558 380.529 668.803 380.789 669.111 380.973C669.419 381.149 669.76 381.237 670.134 381.237C670.508 381.237 670.849 381.149 671.157 380.973C671.473 380.789 671.722 380.529 671.905 380.192C672.089 379.847 672.18 379.447 672.18 378.993ZM680.274 378.773C680.274 378.963 680.263 379.165 680.241 379.378H675.423C675.459 379.972 675.661 380.437 676.028 380.775C676.402 381.105 676.853 381.27 677.381 381.27C677.813 381.27 678.173 381.171 678.459 380.973C678.752 380.767 678.957 380.496 679.075 380.159H680.153C679.991 380.738 679.669 381.211 679.185 381.578C678.701 381.937 678.099 382.117 677.381 382.117C676.809 382.117 676.295 381.988 675.841 381.732C675.393 381.475 675.041 381.112 674.785 380.643C674.528 380.166 674.4 379.616 674.4 378.993C674.4 378.369 674.524 377.823 674.774 377.354C675.023 376.884 675.371 376.525 675.819 376.276C676.273 376.019 676.794 375.891 677.381 375.891C677.953 375.891 678.459 376.015 678.899 376.265C679.339 376.514 679.676 376.859 679.911 377.299C680.153 377.731 680.274 378.223 680.274 378.773ZM679.24 378.564C679.24 378.182 679.155 377.856 678.987 377.585C678.818 377.306 678.587 377.097 678.294 376.958C678.008 376.811 677.689 376.738 677.337 376.738C676.831 376.738 676.398 376.899 676.039 377.222C675.687 377.544 675.485 377.992 675.434 378.564H679.24ZM682.486 376.969C682.662 376.624 682.911 376.356 683.234 376.166C683.564 375.975 683.964 375.88 684.433 375.88V376.914H684.169C683.047 376.914 682.486 377.522 682.486 378.74V382.018H681.485V375.99H682.486V376.969Z" fill="white"/>
<rect x="199.051" y="375.402" width="68.5145" height="20.4654" rx="4" fill="#1B2E21"/>
<rect x="199.551" y="375.902" width="67.5145" height="19.4654" rx="3.5" stroke="white" stroke-opacity="0.2"/>
<path d="M207.657 388.321H210.341V389.135H206.656V381.468H207.657V388.321ZM211.811 382.128C211.62 382.128 211.459 382.062 211.327 381.93C211.195 381.798 211.129 381.636 211.129 381.446C211.129 381.255 211.195 381.094 211.327 380.962C211.459 380.83 211.62 380.764 211.811 380.764C211.994 380.764 212.148 380.83 212.273 380.962C212.405 381.094 212.471 381.255 212.471 381.446C212.471 381.636 212.405 381.798 212.273 381.93C212.148 382.062 211.994 382.128 211.811 382.128ZM212.295 383.107V389.135H211.294V383.107H212.295ZM221.14 382.997C221.609 382.997 222.027 383.096 222.394 383.294C222.76 383.484 223.05 383.774 223.263 384.163C223.475 384.551 223.582 385.024 223.582 385.582V389.135H222.592V385.725C222.592 385.123 222.441 384.665 222.141 384.35C221.847 384.027 221.448 383.866 220.942 383.866C220.421 383.866 220.007 384.034 219.699 384.372C219.391 384.702 219.237 385.182 219.237 385.813V389.135H218.247V385.725C218.247 385.123 218.096 384.665 217.796 384.35C217.502 384.027 217.103 383.866 216.597 383.866C216.076 383.866 215.662 384.034 215.354 384.372C215.046 384.702 214.892 385.182 214.892 385.813V389.135H213.891V383.107H214.892V383.976C215.09 383.66 215.354 383.418 215.684 383.25C216.021 383.081 216.391 382.997 216.795 382.997C217.301 382.997 217.748 383.11 218.137 383.338C218.525 383.565 218.815 383.899 219.006 384.339C219.174 383.913 219.453 383.583 219.842 383.349C220.23 383.114 220.663 382.997 221.14 382.997ZM225.631 382.128C225.44 382.128 225.279 382.062 225.147 381.93C225.015 381.798 224.949 381.636 224.949 381.446C224.949 381.255 225.015 381.094 225.147 380.962C225.279 380.83 225.44 380.764 225.631 380.764C225.814 380.764 225.968 380.83 226.093 380.962C226.225 381.094 226.291 381.255 226.291 381.446C226.291 381.636 226.225 381.798 226.093 381.93C225.968 382.062 225.814 382.128 225.631 382.128ZM226.115 383.107V389.135H225.114V383.107H226.115ZM228.932 383.932V387.485C228.932 387.778 228.994 387.987 229.119 388.112C229.243 388.229 229.46 388.288 229.768 388.288H230.505V389.135H229.603C229.045 389.135 228.627 389.006 228.349 388.75C228.07 388.493 227.931 388.071 227.931 387.485V383.932H227.15V383.107H227.931V381.589H228.932V383.107H230.505V383.932H228.932ZM237.906 389.212C237.195 389.212 236.546 389.047 235.959 388.717C235.372 388.379 234.907 387.914 234.562 387.32C234.225 386.718 234.056 386.044 234.056 385.296C234.056 384.548 234.225 383.877 234.562 383.283C234.907 382.681 235.372 382.216 235.959 381.886C236.546 381.548 237.195 381.38 237.906 381.38C238.625 381.38 239.277 381.548 239.864 381.886C240.451 382.216 240.913 382.678 241.25 383.272C241.587 383.866 241.756 384.54 241.756 385.296C241.756 386.051 241.587 386.726 241.25 387.32C240.913 387.914 240.451 388.379 239.864 388.717C239.277 389.047 238.625 389.212 237.906 389.212ZM237.906 388.343C238.441 388.343 238.922 388.218 239.347 387.969C239.78 387.719 240.117 387.364 240.359 386.902C240.608 386.44 240.733 385.904 240.733 385.296C240.733 384.68 240.608 384.144 240.359 383.69C240.117 383.228 239.783 382.872 239.358 382.623C238.933 382.373 238.449 382.249 237.906 382.249C237.363 382.249 236.879 382.373 236.454 382.623C236.029 382.872 235.691 383.228 235.442 383.69C235.2 384.144 235.079 384.68 235.079 385.296C235.079 385.904 235.2 386.44 235.442 386.902C235.691 387.364 236.029 387.719 236.454 387.969C236.887 388.218 237.371 388.343 237.906 388.343ZM242.594 386.099C242.594 385.483 242.718 384.944 242.968 384.482C243.217 384.012 243.558 383.649 243.991 383.393C244.431 383.136 244.922 383.008 245.465 383.008C245.934 383.008 246.37 383.118 246.774 383.338C247.177 383.55 247.485 383.833 247.698 384.185V380.995H248.71V389.135H247.698V388.002C247.5 388.361 247.206 388.658 246.818 388.893C246.429 389.12 245.974 389.234 245.454 389.234C244.918 389.234 244.431 389.102 243.991 388.838C243.558 388.574 243.217 388.203 242.968 387.727C242.718 387.25 242.594 386.707 242.594 386.099ZM247.698 386.11C247.698 385.655 247.606 385.259 247.423 384.922C247.239 384.584 246.99 384.328 246.675 384.152C246.367 383.968 246.026 383.877 245.652 383.877C245.278 383.877 244.937 383.965 244.629 384.141C244.321 384.317 244.075 384.573 243.892 384.911C243.708 385.248 243.617 385.644 243.617 386.099C243.617 386.561 243.708 386.964 243.892 387.309C244.075 387.646 244.321 387.906 244.629 388.09C244.937 388.266 245.278 388.354 245.652 388.354C246.026 388.354 246.367 388.266 246.675 388.09C246.99 387.906 247.239 387.646 247.423 387.309C247.606 386.964 247.698 386.564 247.698 386.11ZM255.791 385.89C255.791 386.08 255.78 386.282 255.758 386.495H250.94C250.977 387.089 251.179 387.554 251.545 387.892C251.919 388.222 252.37 388.387 252.898 388.387C253.331 388.387 253.69 388.288 253.976 388.09C254.27 387.884 254.475 387.613 254.592 387.276H255.67C255.509 387.855 255.186 388.328 254.702 388.695C254.218 389.054 253.617 389.234 252.898 389.234C252.326 389.234 251.813 389.105 251.358 388.849C250.911 388.592 250.559 388.229 250.302 387.76C250.046 387.283 249.917 386.733 249.917 386.11C249.917 385.486 250.042 384.94 250.291 384.471C250.541 384.001 250.889 383.642 251.336 383.393C251.791 383.136 252.312 383.008 252.898 383.008C253.47 383.008 253.976 383.132 254.416 383.382C254.856 383.631 255.194 383.976 255.428 384.416C255.67 384.848 255.791 385.34 255.791 385.89ZM254.757 385.681C254.757 385.299 254.673 384.973 254.504 384.702C254.336 384.423 254.105 384.214 253.811 384.075C253.525 383.928 253.206 383.855 252.854 383.855C252.348 383.855 251.916 384.016 251.556 384.339C251.204 384.661 251.003 385.109 250.951 385.681H254.757ZM258.004 384.086C258.18 383.741 258.429 383.473 258.752 383.283C259.082 383.092 259.481 382.997 259.951 382.997V384.031H259.687C258.565 384.031 258.004 384.639 258.004 385.857V389.135H257.003V383.107H258.004V384.086Z" fill="white"/>
<g clip-path="url(#clip1_3592_52108)">
<path d="M552.298 368.034C552.086 368.04 551.886 368.13 551.741 368.284C551.596 368.438 551.518 368.644 551.524 368.855L551.881 380.873C551.894 381.314 552.261 381.66 552.702 381.647C552.902 381.641 553.068 381.573 553.201 381.464L555.157 379.778L557.013 383.526C557.158 383.805 557.446 383.965 557.75 383.956C557.866 383.952 557.981 383.949 558.094 383.861L560.951 382.432C561.344 382.231 561.519 381.743 561.298 381.361L559.432 377.602L561.947 377.055C562.12 377.005 562.274 376.905 562.39 376.769C562.664 376.424 562.607 375.932 562.231 375.639L552.828 368.197L552.818 368.207C552.671 368.09 552.486 368.028 552.298 368.034ZM558.654 369.309L558.592 367.209L561.975 367.022L562.037 369.121L558.654 369.309ZM556.378 362.758L558.28 360.754L559.804 362.19L557.902 364.194L556.378 362.758ZM551.229 358.936L553.329 358.874L553.447 361.57L551.348 361.633L551.229 358.936ZM545.315 374.513L547.309 372.418L548.833 373.854L546.839 375.949L545.315 374.513ZM544.962 362.631L546.398 361.107L548.261 362.985L546.825 364.509L544.962 362.631ZM546.017 369.693L543.144 369.682L543.082 367.582L545.954 367.594L546.017 369.693Z" fill="url(#paint32_linear_3592_52108)"/>
</g>
<rect x="538.065" y="88" width="151.555" height="107.666" rx="12" fill="white" fill-opacity="0.1"/>
<rect x="538.565" y="88.5" width="150.555" height="106.666" rx="11.5" stroke="white" stroke-opacity="0.2"/>
<rect x="544.922" y="94.8594" width="137.839" height="93.9502" rx="8" fill="#010924"/>
<rect x="526.042" y="153.143" width="53.3692" height="20.4059" rx="4" fill="#4F1E1E"/>
<rect x="526.542" y="153.643" width="52.3692" height="19.4059" rx="3.5" stroke="white" stroke-opacity="0.2"/>
<path d="M534.7 163.007C534.7 162.259 534.869 161.588 535.206 160.994C535.543 160.392 536.002 159.923 536.581 159.586C537.168 159.248 537.817 159.08 538.528 159.08C539.364 159.08 540.094 159.281 540.717 159.685C541.34 160.088 541.795 160.66 542.081 161.401H540.882C540.669 160.939 540.361 160.583 539.958 160.334C539.562 160.084 539.085 159.96 538.528 159.96C537.993 159.96 537.512 160.084 537.087 160.334C536.662 160.583 536.328 160.939 536.086 161.401C535.844 161.855 535.723 162.391 535.723 163.007C535.723 163.615 535.844 164.151 536.086 164.613C536.328 165.067 536.662 165.419 537.087 165.669C537.512 165.918 537.993 166.043 538.528 166.043C539.085 166.043 539.562 165.922 539.958 165.68C540.361 165.43 540.669 165.075 540.882 164.613H542.081C541.795 165.346 541.34 165.914 540.717 166.318C540.094 166.714 539.364 166.912 538.528 166.912C537.817 166.912 537.168 166.747 536.581 166.417C536.002 166.079 535.543 165.614 535.206 165.02C534.869 164.426 534.7 163.755 534.7 163.007ZM546.453 160.708C546.908 160.708 547.318 160.807 547.685 161.005C548.052 161.195 548.338 161.485 548.543 161.874C548.756 162.262 548.862 162.735 548.862 163.293V166.846H547.872V163.436C547.872 162.834 547.722 162.376 547.421 162.061C547.12 161.738 546.71 161.577 546.189 161.577C545.661 161.577 545.239 161.742 544.924 162.072C544.616 162.402 544.462 162.882 544.462 163.513V166.846H543.461V158.706H544.462V161.676C544.66 161.368 544.931 161.129 545.276 160.961C545.628 160.792 546.02 160.708 546.453 160.708ZM550.013 163.81C550.013 163.194 550.138 162.655 550.387 162.193C550.637 161.723 550.978 161.36 551.41 161.104C551.85 160.847 552.338 160.719 552.873 160.719C553.401 160.719 553.86 160.832 554.248 161.06C554.637 161.287 554.927 161.573 555.117 161.918V160.818H556.129V166.846H555.117V165.724C554.919 166.076 554.622 166.369 554.226 166.604C553.838 166.831 553.383 166.945 552.862 166.945C552.327 166.945 551.843 166.813 551.41 166.549C550.978 166.285 550.637 165.914 550.387 165.438C550.138 164.961 550.013 164.418 550.013 163.81ZM555.117 163.821C555.117 163.366 555.026 162.97 554.842 162.633C554.659 162.295 554.41 162.039 554.094 161.863C553.786 161.679 553.445 161.588 553.071 161.588C552.697 161.588 552.356 161.676 552.048 161.852C551.74 162.028 551.495 162.284 551.311 162.622C551.128 162.959 551.036 163.355 551.036 163.81C551.036 164.272 551.128 164.675 551.311 165.02C551.495 165.357 551.74 165.617 552.048 165.801C552.356 165.977 552.697 166.065 553.071 166.065C553.445 166.065 553.786 165.977 554.094 165.801C554.41 165.617 554.659 165.357 554.842 165.02C555.026 164.675 555.117 164.275 555.117 163.821ZM558.712 161.797C558.888 161.452 559.137 161.184 559.46 160.994C559.79 160.803 560.19 160.708 560.659 160.708V161.742H560.395C559.273 161.742 558.712 162.35 558.712 163.568V166.846H557.711V160.818H558.712V161.797ZM562.925 161.643V165.196C562.925 165.489 562.988 165.698 563.112 165.823C563.237 165.94 563.453 165.999 563.761 165.999H564.498V166.846H563.596C563.039 166.846 562.621 166.717 562.342 166.461C562.064 166.204 561.924 165.782 561.924 165.196V161.643H561.143V160.818H561.924V159.3H562.925V160.818H564.498V161.643H562.925ZM567.735 166.945C567.273 166.945 566.859 166.868 566.492 166.714C566.126 166.552 565.836 166.332 565.623 166.054C565.411 165.768 565.293 165.441 565.271 165.075H566.305C566.335 165.375 566.474 165.621 566.723 165.812C566.98 166.002 567.314 166.098 567.724 166.098C568.106 166.098 568.406 166.013 568.626 165.845C568.846 165.676 568.956 165.463 568.956 165.207C568.956 164.943 568.839 164.748 568.604 164.624C568.37 164.492 568.007 164.363 567.515 164.239C567.068 164.121 566.701 164.004 566.415 163.887C566.137 163.762 565.895 163.582 565.689 163.348C565.491 163.106 565.392 162.79 565.392 162.402C565.392 162.094 565.484 161.811 565.667 161.555C565.851 161.298 566.111 161.096 566.448 160.95C566.786 160.796 567.171 160.719 567.603 160.719C568.271 160.719 568.81 160.887 569.22 161.225C569.631 161.562 569.851 162.024 569.88 162.611H568.879C568.857 162.295 568.729 162.042 568.494 161.852C568.267 161.661 567.959 161.566 567.57 161.566C567.211 161.566 566.925 161.643 566.712 161.797C566.5 161.951 566.393 162.152 566.393 162.402C566.393 162.6 566.456 162.765 566.58 162.897C566.712 163.021 566.874 163.124 567.064 163.205C567.262 163.278 567.534 163.362 567.878 163.458C568.311 163.575 568.663 163.692 568.934 163.81C569.206 163.92 569.437 164.088 569.627 164.316C569.825 164.543 569.928 164.84 569.935 165.207C569.935 165.537 569.844 165.834 569.66 166.098C569.477 166.362 569.217 166.571 568.879 166.725C568.549 166.871 568.168 166.945 567.735 166.945Z" fill="white"/>
<rect x="564.81" y="120.461" width="10.0579" height="37.7172" rx="1" fill="url(#paint33_linear_3592_52108)"/>
<path d="M569.839 114.176V161.951" stroke="url(#paint34_linear_3592_52108)"/>
<rect x="577.382" y="107.887" width="10.0579" height="37.7172" rx="1" fill="url(#paint35_linear_3592_52108)"/>
<path d="M582.411 101.602V149.377" stroke="url(#paint36_linear_3592_52108)"/>
<rect x="589.956" y="112.918" width="10.0579" height="37.7172" rx="1" fill="url(#paint37_linear_3592_52108)"/>
<path d="M594.984 106.633V154.408" stroke="url(#paint38_linear_3592_52108)"/>
<rect x="602.528" y="121.717" width="10.0579" height="37.7172" rx="1" fill="url(#paint39_linear_3592_52108)"/>
<path d="M607.557 115.432V163.207" stroke="url(#paint40_linear_3592_52108)"/>
<rect x="615.1" y="133.035" width="10.0579" height="37.7172" rx="1" fill="url(#paint41_linear_3592_52108)"/>
<path d="M620.129 126.75V174.525" stroke="url(#paint42_linear_3592_52108)"/>
<rect x="627.673" y="141.834" width="10.0579" height="37.7172" rx="1" fill="url(#paint43_linear_3592_52108)"/>
<path d="M632.702 135.549V183.324" stroke="url(#paint44_linear_3592_52108)"/>
<rect x="638.987" y="117.945" width="10.0579" height="37.7172" rx="1" fill="url(#paint45_linear_3592_52108)"/>
<path d="M644.016 111.66V159.435" stroke="url(#paint46_linear_3592_52108)"/>
<rect x="652.817" y="106.631" width="10.0579" height="37.7172" rx="1" fill="url(#paint47_linear_3592_52108)"/>
<path d="M657.845 100.346V148.121" stroke="url(#paint48_linear_3592_52108)"/>
<rect x="123.418" y="242.826" width="151.555" height="107.666" rx="12" fill="white" fill-opacity="0.1"/>
<rect x="123.918" y="243.326" width="150.555" height="106.666" rx="11.5" stroke="white" stroke-opacity="0.2"/>
<rect x="130.537" y="249.941" width="137.839" height="93.9502" rx="8" fill="#010924"/>
<rect x="114" y="255.957" width="59.648" height="18.0514" rx="4" fill="#1C274F"/>
<rect x="114.5" y="256.457" width="58.648" height="17.0514" rx="3.5" stroke="white" stroke-opacity="0.2"/>
<path d="M122.602 268.559C122.096 268.559 121.641 268.471 121.238 268.295C120.842 268.112 120.53 267.863 120.303 267.547C120.076 267.225 119.958 266.854 119.951 266.436H121.018C121.055 266.796 121.201 267.1 121.458 267.349C121.722 267.591 122.103 267.712 122.602 267.712C123.079 267.712 123.453 267.595 123.724 267.36C124.003 267.118 124.142 266.81 124.142 266.436C124.142 266.143 124.061 265.905 123.9 265.721C123.739 265.538 123.537 265.399 123.295 265.303C123.053 265.208 122.727 265.105 122.316 264.995C121.81 264.863 121.403 264.731 121.095 264.599C120.794 264.467 120.534 264.262 120.314 263.983C120.101 263.697 119.995 263.316 119.995 262.839C119.995 262.421 120.101 262.051 120.314 261.728C120.527 261.406 120.824 261.156 121.205 260.98C121.594 260.804 122.037 260.716 122.536 260.716C123.255 260.716 123.841 260.896 124.296 261.255C124.758 261.615 125.018 262.091 125.077 262.685H123.977C123.94 262.392 123.786 262.135 123.515 261.915C123.244 261.688 122.884 261.574 122.437 261.574C122.019 261.574 121.678 261.684 121.414 261.904C121.15 262.117 121.018 262.418 121.018 262.806C121.018 263.085 121.095 263.312 121.249 263.488C121.41 263.664 121.605 263.8 121.832 263.895C122.067 263.983 122.393 264.086 122.811 264.203C123.317 264.343 123.724 264.482 124.032 264.621C124.34 264.753 124.604 264.962 124.824 265.248C125.044 265.527 125.154 265.908 125.154 266.392C125.154 266.766 125.055 267.118 124.857 267.448C124.659 267.778 124.366 268.046 123.977 268.251C123.588 268.457 123.13 268.559 122.602 268.559ZM127.738 263.279V266.832C127.738 267.126 127.8 267.335 127.925 267.459C128.05 267.577 128.266 267.635 128.574 267.635H129.311V268.482H128.409C127.852 268.482 127.434 268.354 127.155 268.097C126.876 267.841 126.737 267.419 126.737 266.832V263.279H125.956V262.454H126.737V260.936H127.738V262.454H129.311V263.279H127.738ZM133.043 268.581C132.478 268.581 131.965 268.453 131.503 268.196C131.048 267.94 130.689 267.577 130.425 267.107C130.168 266.631 130.04 266.081 130.04 265.457C130.04 264.841 130.172 264.299 130.436 263.829C130.707 263.353 131.074 262.99 131.536 262.74C131.998 262.484 132.515 262.355 133.087 262.355C133.659 262.355 134.176 262.484 134.638 262.74C135.1 262.99 135.463 263.349 135.727 263.818C135.998 264.288 136.134 264.834 136.134 265.457C136.134 266.081 135.995 266.631 135.716 267.107C135.445 267.577 135.074 267.94 134.605 268.196C134.136 268.453 133.615 268.581 133.043 268.581ZM133.043 267.701C133.402 267.701 133.74 267.617 134.055 267.448C134.37 267.28 134.623 267.027 134.814 266.689C135.012 266.352 135.111 265.941 135.111 265.457C135.111 264.973 135.016 264.563 134.825 264.225C134.634 263.888 134.385 263.639 134.077 263.477C133.769 263.309 133.435 263.224 133.076 263.224C132.709 263.224 132.372 263.309 132.064 263.477C131.763 263.639 131.521 263.888 131.338 264.225C131.155 264.563 131.063 264.973 131.063 265.457C131.063 265.949 131.151 266.363 131.327 266.7C131.51 267.038 131.752 267.291 132.053 267.459C132.354 267.621 132.684 267.701 133.043 267.701ZM138.341 263.565C138.539 263.221 138.832 262.935 139.221 262.707C139.617 262.473 140.075 262.355 140.596 262.355C141.131 262.355 141.615 262.484 142.048 262.74C142.488 262.997 142.833 263.36 143.082 263.829C143.331 264.291 143.456 264.83 143.456 265.446C143.456 266.055 143.331 266.598 143.082 267.074C142.833 267.551 142.488 267.921 142.048 268.185C141.615 268.449 141.131 268.581 140.596 268.581C140.083 268.581 139.628 268.468 139.232 268.24C138.843 268.006 138.546 267.716 138.341 267.371V271.342H137.34V262.454H138.341V263.565ZM142.433 265.446C142.433 264.992 142.341 264.596 142.158 264.258C141.975 263.921 141.725 263.664 141.41 263.488C141.102 263.312 140.761 263.224 140.387 263.224C140.02 263.224 139.679 263.316 139.364 263.499C139.056 263.675 138.807 263.936 138.616 264.28C138.433 264.618 138.341 265.01 138.341 265.457C138.341 265.912 138.433 266.312 138.616 266.656C138.807 266.994 139.056 267.254 139.364 267.437C139.679 267.613 140.02 267.701 140.387 267.701C140.761 267.701 141.102 267.613 141.41 267.437C141.725 267.254 141.975 266.994 142.158 266.656C142.341 266.312 142.433 265.908 142.433 265.446ZM148.487 260.342V268.482H147.486V260.342H148.487ZM152.712 268.581C152.148 268.581 151.634 268.453 151.172 268.196C150.718 267.94 150.358 267.577 150.094 267.107C149.838 266.631 149.709 266.081 149.709 265.457C149.709 264.841 149.841 264.299 150.105 263.829C150.377 263.353 150.743 262.99 151.205 262.74C151.667 262.484 152.184 262.355 152.756 262.355C153.328 262.355 153.845 262.484 154.307 262.74C154.769 262.99 155.132 263.349 155.396 263.818C155.668 264.288 155.803 264.834 155.803 265.457C155.803 266.081 155.664 266.631 155.385 267.107C155.114 267.577 154.744 267.94 154.274 268.196C153.805 268.453 153.284 268.581 152.712 268.581ZM152.712 267.701C153.072 267.701 153.409 267.617 153.724 267.448C154.04 267.28 154.293 267.027 154.483 266.689C154.681 266.352 154.78 265.941 154.78 265.457C154.78 264.973 154.685 264.563 154.494 264.225C154.304 263.888 154.054 263.639 153.746 263.477C153.438 263.309 153.105 263.224 152.745 263.224C152.379 263.224 152.041 263.309 151.733 263.477C151.433 263.639 151.191 263.888 151.007 264.225C150.824 264.563 150.732 264.973 150.732 265.457C150.732 265.949 150.82 266.363 150.996 266.7C151.18 267.038 151.422 267.291 151.722 267.459C152.023 267.621 152.353 267.701 152.712 267.701ZM159.143 268.581C158.681 268.581 158.267 268.504 157.9 268.35C157.534 268.189 157.244 267.969 157.031 267.69C156.819 267.404 156.701 267.078 156.679 266.711H157.713C157.743 267.012 157.882 267.258 158.131 267.448C158.388 267.639 158.722 267.734 159.132 267.734C159.514 267.734 159.814 267.65 160.034 267.481C160.254 267.313 160.364 267.1 160.364 266.843C160.364 266.579 160.247 266.385 160.012 266.26C159.778 266.128 159.415 266 158.923 265.875C158.476 265.758 158.109 265.641 157.823 265.523C157.545 265.399 157.303 265.219 157.097 264.984C156.899 264.742 156.8 264.427 156.8 264.038C156.8 263.73 156.892 263.448 157.075 263.191C157.259 262.935 157.519 262.733 157.856 262.586C158.194 262.432 158.579 262.355 159.011 262.355C159.679 262.355 160.218 262.524 160.628 262.861C161.039 263.199 161.259 263.661 161.288 264.247H160.287C160.265 263.932 160.137 263.679 159.902 263.488C159.675 263.298 159.367 263.202 158.978 263.202C158.619 263.202 158.333 263.279 158.12 263.433C157.908 263.587 157.801 263.789 157.801 264.038C157.801 264.236 157.864 264.401 157.988 264.533C158.12 264.658 158.282 264.761 158.472 264.841C158.67 264.915 158.942 264.999 159.286 265.094C159.719 265.212 160.071 265.329 160.342 265.446C160.614 265.556 160.845 265.725 161.035 265.952C161.233 266.18 161.336 266.477 161.343 266.843C161.343 267.173 161.252 267.47 161.068 267.734C160.885 267.998 160.625 268.207 160.287 268.361C159.957 268.508 159.576 268.581 159.143 268.581ZM164.78 268.581C164.318 268.581 163.904 268.504 163.537 268.35C163.171 268.189 162.881 267.969 162.668 267.69C162.456 267.404 162.338 267.078 162.316 266.711H163.35C163.38 267.012 163.519 267.258 163.768 267.448C164.025 267.639 164.359 267.734 164.769 267.734C165.151 267.734 165.451 267.65 165.671 267.481C165.891 267.313 166.001 267.1 166.001 266.843C166.001 266.579 165.884 266.385 165.649 266.26C165.415 266.128 165.052 266 164.56 265.875C164.113 265.758 163.746 265.641 163.46 265.523C163.182 265.399 162.94 265.219 162.734 264.984C162.536 264.742 162.437 264.427 162.437 264.038C162.437 263.73 162.529 263.448 162.712 263.191C162.896 262.935 163.156 262.733 163.493 262.586C163.831 262.432 164.216 262.355 164.648 262.355C165.316 262.355 165.855 262.524 166.265 262.861C166.676 263.199 166.896 263.661 166.925 264.247H165.924C165.902 263.932 165.774 263.679 165.539 263.488C165.312 263.298 165.004 263.202 164.615 263.202C164.256 263.202 163.97 263.279 163.757 263.433C163.545 263.587 163.438 263.789 163.438 264.038C163.438 264.236 163.501 264.401 163.625 264.533C163.757 264.658 163.919 264.761 164.109 264.841C164.307 264.915 164.579 264.999 164.923 265.094C165.356 265.212 165.708 265.329 165.979 265.446C166.251 265.556 166.482 265.725 166.672 265.952C166.87 266.18 166.973 266.477 166.98 266.843C166.98 267.173 166.889 267.47 166.705 267.734C166.522 267.998 166.262 268.207 165.924 268.361C165.594 268.508 165.213 268.581 164.78 268.581Z" fill="white"/>
<path d="M164.873 284C152.26 280.654 146.24 300.382 144.806 310.665V332.252H254.218V276.68C251.352 274.066 247.529 263.61 235.585 260.996C223.64 258.382 217.907 269.884 206.918 284C195.929 298.116 180.64 288.183 164.873 284Z" fill="url(#paint49_linear_3592_52108)"/>
<path d="M144.328 310.817C145.762 300.535 151.782 280.806 164.395 284.153C180.162 288.335 195.451 298.269 206.44 284.153C217.429 270.036 223.163 258.534 235.107 261.148C247.052 263.762 250.874 274.218 253.741 276.832" stroke="#6DD288" stroke-linecap="round"/>
<path d="M167.405 296.376C161.645 287.479 149.325 287.596 143.884 288.766V332.695H253.329V315.987C238.449 303.401 218.092 319.74 210.127 308.084C202.927 297.547 194.767 296.962 188.046 303.401C183.82 307.451 174.606 307.499 167.405 296.376Z" fill="url(#paint50_linear_3592_52108)"/>
<path d="M143.884 288.79C149.325 287.619 161.645 287.502 167.405 296.4C174.606 307.522 183.82 307.475 188.046 303.425C194.767 296.985 202.927 297.571 210.127 308.108C218.092 319.763 238.449 303.425 253.329 316.011" stroke="#E25F5B"/>
</g>
<defs>
<filter id="filter0_f_3592_52108" x="216" y="-114" width="621" height="621" filterUnits="userSpaceOnUse" color-interpolation-filters="sRGB">
<feFlood flood-opacity="0" result="BackgroundImageFix"/>
<feBlend mode="normal" in="SourceGraphic" in2="BackgroundImageFix" result="shape"/>
<feGaussianBlur stdDeviation="100" result="effect1_foregroundBlur_3592_52108"/>
</filter>
<filter id="filter1_f_3592_52108" x="354" y="-80" width="532" height="531" filterUnits="userSpaceOnUse" color-interpolation-filters="sRGB">
<feFlood flood-opacity="0" result="BackgroundImageFix"/>
<feBlend mode="normal" in="SourceGraphic" in2="BackgroundImageFix" result="shape"/>
<feGaussianBlur stdDeviation="100" result="effect1_foregroundBlur_3592_52108"/>
</filter>
<filter id="filter2_f_3592_52108" x="-69" y="5" width="589" height="589" filterUnits="userSpaceOnUse" color-interpolation-filters="sRGB">
<feFlood flood-opacity="0" result="BackgroundImageFix"/>
<feBlend mode="normal" in="SourceGraphic" in2="BackgroundImageFix" result="shape"/>
<feGaussianBlur stdDeviation="100" result="effect1_foregroundBlur_3592_52108"/>
</filter>
<linearGradient id="paint0_linear_3592_52108" x1="617.256" y1="97.7873" x2="243.096" y2="424.788" gradientUnits="userSpaceOnUse">
<stop stop-color="#A84444"/>
<stop offset="1" stop-color="#7E44FA" stop-opacity="0.62"/>
</linearGradient>
<linearGradient id="paint1_linear_3592_52108" x1="377.233" y1="181.697" x2="377.233" y2="388.797" gradientUnits="userSpaceOnUse">
<stop stop-color="#136342" stop-opacity="0"/>
<stop offset="1" stop-color="#092132"/>
<stop offset="1" stop-color="#136342"/>
</linearGradient>
<linearGradient id="paint2_linear_3592_52108" x1="348.793" y1="303.229" x2="410.302" y2="303.229" gradientUnits="userSpaceOnUse">
<stop stop-color="#136342"/>
<stop offset="0.395833" stop-color="#136342" stop-opacity="0.10828"/>
<stop offset="0.817708" stop-color="#136342" stop-opacity="0"/>
</linearGradient>
<linearGradient id="paint3_linear_3592_52108" x1="348.793" y1="318.987" x2="410.302" y2="318.987" gradientUnits="userSpaceOnUse">
<stop stop-color="#136342"/>
<stop offset="0.505208" stop-color="#136342" stop-opacity="0.110236"/>
<stop offset="0.661458" stop-color="#136342" stop-opacity="0"/>
</linearGradient>
<linearGradient id="paint4_linear_3592_52108" x1="348.793" y1="334.182" x2="410.302" y2="334.182" gradientUnits="userSpaceOnUse">
<stop stop-color="#136342"/>
<stop offset="0.661458" stop-color="#136342" stop-opacity="0"/>
</linearGradient>
<linearGradient id="paint5_linear_3592_52108" x1="348.793" y1="349.375" x2="410.302" y2="349.375" gradientUnits="userSpaceOnUse">
<stop stop-color="#136342"/>
<stop offset="1" stop-color="#136342" stop-opacity="0"/>
</linearGradient>
<linearGradient id="paint6_linear_3592_52108" x1="348.793" y1="364.01" x2="410.302" y2="364.01" gradientUnits="userSpaceOnUse">
<stop stop-color="#136342"/>
<stop offset="0.760417" stop-color="#136342" stop-opacity="0"/>
</linearGradient>
<linearGradient id="paint7_linear_3592_52108" x1="348.793" y1="379.202" x2="410.302" y2="379.202" gradientUnits="userSpaceOnUse">
<stop stop-color="#136342"/>
<stop offset="0.510417" stop-color="#136342" stop-opacity="0"/>
</linearGradient>
<linearGradient id="paint8_linear_3592_52108" x1="464.534" y1="280.75" x2="390.68" y2="280.75" gradientUnits="userSpaceOnUse">
<stop stop-color="#3B5CFF" stop-opacity="0.59"/>
<stop offset="0.822917" stop-color="#6D3EF4" stop-opacity="0.33"/>
</linearGradient>
<linearGradient id="paint9_linear_3592_52108" x1="464.534" y1="235.164" x2="390.68" y2="235.164" gradientUnits="userSpaceOnUse">
<stop stop-color="#3B5CFF" stop-opacity="0.59"/>
<stop offset="0.822917" stop-color="#6D3EF4" stop-opacity="0.33"/>
</linearGradient>
<linearGradient id="paint10_linear_3592_52108" x1="464.534" y1="250.357" x2="390.68" y2="250.357" gradientUnits="userSpaceOnUse">
<stop stop-color="#3B5CFF" stop-opacity="0.59"/>
<stop offset="0.822917" stop-color="#6D3EF4" stop-opacity="0.33"/>
</linearGradient>
<linearGradient id="paint11_linear_3592_52108" x1="464.534" y1="205.334" x2="390.68" y2="205.334" gradientUnits="userSpaceOnUse">
<stop stop-color="#3B5CFF" stop-opacity="0.59"/>
<stop offset="0.822917" stop-color="#6D3EF4" stop-opacity="0.33"/>
</linearGradient>
<linearGradient id="paint12_linear_3592_52108" x1="464.534" y1="190.145" x2="390.68" y2="190.145" gradientUnits="userSpaceOnUse">
<stop stop-color="#3B5CFF" stop-opacity="0.59"/>
<stop offset="0.822917" stop-color="#6D3EF4" stop-opacity="0.33"/>
</linearGradient>
<linearGradient id="paint13_linear_3592_52108" x1="464.534" y1="296.504" x2="390.68" y2="296.504" gradientUnits="userSpaceOnUse">
<stop stop-color="#3B5CFF" stop-opacity="0.59"/>
<stop offset="0.822917" stop-color="#6D3EF4" stop-opacity="0.33"/>
</linearGradient>
<linearGradient id="paint14_linear_3592_52108" x1="464.534" y1="326.893" x2="390.68" y2="326.893" gradientUnits="userSpaceOnUse">
<stop stop-color="#3B5CFF" stop-opacity="0.59"/>
<stop offset="0.822917" stop-color="#6D3EF4" stop-opacity="0.33"/>
</linearGradient>
<linearGradient id="paint15_linear_3592_52108" x1="464.534" y1="371.918" x2="390.68" y2="371.918" gradientUnits="userSpaceOnUse">
<stop stop-color="#3B5CFF" stop-opacity="0.59"/>
<stop offset="0.822917" stop-color="#6D3EF4" stop-opacity="0.33"/>
</linearGradient>
<linearGradient id="paint16_linear_3592_52108" x1="483.054" y1="181.697" x2="483.054" y2="388.797" gradientUnits="userSpaceOnUse">
<stop offset="0.0833333" stop-color="#2E1518"/>
<stop offset="1" stop-color="#32091F" stop-opacity="0.43"/>
</linearGradient>
<linearGradient id="paint17_linear_3592_52108" x1="498.706" y1="280.334" x2="560.214" y2="280.334" gradientUnits="userSpaceOnUse">
<stop stop-color="#AC5A5A"/>
<stop offset="0.526042" stop-color="#843737" stop-opacity="0"/>
</linearGradient>
<linearGradient id="paint18_linear_3592_52108" x1="498.707" y1="264.579" x2="560.215" y2="264.579" gradientUnits="userSpaceOnUse">
<stop stop-color="#AC5A5A"/>
<stop offset="0.708333" stop-color="#843737" stop-opacity="0"/>
</linearGradient>
<linearGradient id="paint19_linear_3592_52108" x1="498.706" y1="249.381" x2="560.214" y2="249.381" gradientUnits="userSpaceOnUse">
<stop stop-color="#814949"/>
<stop offset="1" stop-color="#843737" stop-opacity="0"/>
</linearGradient>
<linearGradient id="paint20_linear_3592_52108" x1="498.706" y1="234.75" x2="560.214" y2="234.75" gradientUnits="userSpaceOnUse">
<stop stop-color="#814949"/>
<stop offset="0.802083" stop-color="#843737" stop-opacity="0"/>
</linearGradient>
<linearGradient id="paint21_linear_3592_52108" x1="498.706" y1="219.551" x2="560.214" y2="219.551" gradientUnits="userSpaceOnUse">
<stop stop-color="#814949"/>
<stop offset="0.78125" stop-color="#843737" stop-opacity="0"/>
</linearGradient>
<linearGradient id="paint22_linear_3592_52108" x1="498.706" y1="204.362" x2="560.214" y2="204.362" gradientUnits="userSpaceOnUse">
<stop stop-color="#814949"/>
<stop offset="0.625" stop-color="#843737" stop-opacity="0"/>
</linearGradient>
<linearGradient id="paint23_linear_3592_52108" x1="464.534" y1="265.549" x2="390.68" y2="265.549" gradientUnits="userSpaceOnUse">
<stop stop-color="#3B5CFF" stop-opacity="0.59"/>
<stop offset="0.822917" stop-color="#6D3EF4" stop-opacity="0.33"/>
</linearGradient>
<linearGradient id="paint24_linear_3592_52108" x1="464.534" y1="342.092" x2="390.68" y2="342.092" gradientUnits="userSpaceOnUse">
<stop stop-color="#3B5CFF" stop-opacity="0.59"/>
<stop offset="0.822917" stop-color="#6D3EF4" stop-opacity="0.33"/>
</linearGradient>
<linearGradient id="paint25_linear_3592_52108" x1="348.131" y1="263.863" x2="295.221" y2="263.863" gradientUnits="userSpaceOnUse">
<stop stop-color="#688667"/>
<stop offset="1" stop-color="#2B7777"/>
</linearGradient>
<linearGradient id="paint26_linear_3592_52108" x1="348.131" y1="218.842" x2="295.221" y2="218.842" gradientUnits="userSpaceOnUse">
<stop stop-color="#688667"/>
<stop offset="1" stop-color="#2B7777"/>
</linearGradient>
<linearGradient id="paint27_linear_3592_52108" x1="596.371" y1="365.721" x2="543.461" y2="365.721" gradientUnits="userSpaceOnUse">
<stop stop-color="#86677C"/>
<stop offset="1" stop-color="#772B2B"/>
</linearGradient>
<linearGradient id="paint28_linear_3592_52108" x1="596.371" y1="320.703" x2="543.46" y2="320.703" gradientUnits="userSpaceOnUse">
<stop stop-color="#86677C"/>
<stop offset="1" stop-color="#772B2B"/>
</linearGradient>
<linearGradient id="paint29_linear_3592_52108" x1="464.534" y1="220.531" x2="390.68" y2="220.531" gradientUnits="userSpaceOnUse">
<stop stop-color="#3B5CFF" stop-opacity="0.59"/>
<stop offset="0.822917" stop-color="#6D3EF4" stop-opacity="0.33"/>
</linearGradient>
<linearGradient id="paint30_linear_3592_52108" x1="464.534" y1="357.287" x2="390.68" y2="357.287" gradientUnits="userSpaceOnUse">
<stop stop-color="#3B5CFF" stop-opacity="0.59"/>
<stop offset="0.822917" stop-color="#6D3EF4" stop-opacity="0.33"/>
</linearGradient>
<linearGradient id="paint31_linear_3592_52108" x1="464.534" y1="311.699" x2="390.68" y2="311.699" gradientUnits="userSpaceOnUse">
<stop stop-color="#3B5CFF" stop-opacity="0.59"/>
<stop offset="0.822917" stop-color="#6D3EF4" stop-opacity="0.33"/>
</linearGradient>
<linearGradient id="paint32_linear_3592_52108" x1="552.435" y1="358.9" x2="553.183" y2="384.091" gradientUnits="userSpaceOnUse">
<stop stop-color="#70A457"/>
<stop offset="1" stop-color="#6F571A"/>
</linearGradient>
<linearGradient id="paint33_linear_3592_52108" x1="569.839" y1="120.461" x2="569.839" y2="158.178" gradientUnits="userSpaceOnUse">
<stop stop-color="#3C7064"/>
<stop offset="1" stop-color="#324D3A" stop-opacity="0"/>
</linearGradient>
<linearGradient id="paint34_linear_3592_52108" x1="570.339" y1="114.176" x2="570.339" y2="161.951" gradientUnits="userSpaceOnUse">
<stop stop-color="#3C7064"/>
<stop offset="1" stop-color="#324D3A" stop-opacity="0"/>
</linearGradient>
<linearGradient id="paint35_linear_3592_52108" x1="582.411" y1="107.887" x2="582.411" y2="145.604" gradientUnits="userSpaceOnUse">
<stop stop-color="#3C7064"/>
<stop offset="1" stop-color="#324D3A" stop-opacity="0"/>
</linearGradient>
<linearGradient id="paint36_linear_3592_52108" x1="582.911" y1="101.602" x2="582.911" y2="149.377" gradientUnits="userSpaceOnUse">
<stop stop-color="#3C7064"/>
<stop offset="1" stop-color="#324D3A" stop-opacity="0"/>
</linearGradient>
<linearGradient id="paint37_linear_3592_52108" x1="594.985" y1="112.918" x2="594.985" y2="150.635" gradientUnits="userSpaceOnUse">
<stop stop-color="#7C4047"/>
<stop offset="1" stop-color="#38191D" stop-opacity="0"/>
</linearGradient>
<linearGradient id="paint38_linear_3592_52108" x1="595.484" y1="106.633" x2="595.484" y2="154.408" gradientUnits="userSpaceOnUse">
<stop stop-color="#7C4047"/>
<stop offset="1" stop-color="#38191D" stop-opacity="0"/>
</linearGradient>
<linearGradient id="paint39_linear_3592_52108" x1="607.557" y1="121.717" x2="607.557" y2="159.434" gradientUnits="userSpaceOnUse">
<stop stop-color="#7C4047"/>
<stop offset="1" stop-color="#38191D" stop-opacity="0"/>
</linearGradient>
<linearGradient id="paint40_linear_3592_52108" x1="608.057" y1="115.432" x2="608.057" y2="163.207" gradientUnits="userSpaceOnUse">
<stop stop-color="#7C4047"/>
<stop offset="1" stop-color="#38191D" stop-opacity="0"/>
</linearGradient>
<linearGradient id="paint41_linear_3592_52108" x1="620.129" y1="133.035" x2="620.129" y2="170.752" gradientUnits="userSpaceOnUse">
<stop stop-color="#7C4047"/>
<stop offset="1" stop-color="#38191D" stop-opacity="0"/>
</linearGradient>
<linearGradient id="paint42_linear_3592_52108" x1="620.629" y1="126.75" x2="620.629" y2="174.525" gradientUnits="userSpaceOnUse">
<stop stop-color="#7C4047"/>
<stop offset="1" stop-color="#38191D" stop-opacity="0"/>
</linearGradient>
<linearGradient id="paint43_linear_3592_52108" x1="632.702" y1="141.834" x2="632.702" y2="179.551" gradientUnits="userSpaceOnUse">
<stop stop-color="#7C4047"/>
<stop offset="1" stop-color="#38191D" stop-opacity="0"/>
</linearGradient>
<linearGradient id="paint44_linear_3592_52108" x1="633.202" y1="135.549" x2="633.202" y2="183.324" gradientUnits="userSpaceOnUse">
<stop stop-color="#7C4047"/>
<stop offset="1" stop-color="#38191D" stop-opacity="0"/>
</linearGradient>
<linearGradient id="paint45_linear_3592_52108" x1="644.016" y1="117.945" x2="644.016" y2="155.663" gradientUnits="userSpaceOnUse">
<stop stop-color="#3C7064"/>
<stop offset="1" stop-color="#324D3A" stop-opacity="0"/>
</linearGradient>
<linearGradient id="paint46_linear_3592_52108" x1="644.516" y1="111.66" x2="644.516" y2="159.435" gradientUnits="userSpaceOnUse">
<stop stop-color="#3C7064"/>
<stop offset="1" stop-color="#324D3A" stop-opacity="0"/>
</linearGradient>
<linearGradient id="paint47_linear_3592_52108" x1="657.846" y1="106.631" x2="657.846" y2="144.348" gradientUnits="userSpaceOnUse">
<stop stop-color="#3C7064"/>
<stop offset="1" stop-color="#324D3A" stop-opacity="0"/>
</linearGradient>
<linearGradient id="paint48_linear_3592_52108" x1="658.345" y1="100.346" x2="658.345" y2="148.121" gradientUnits="userSpaceOnUse">
<stop stop-color="#3C7064"/>
<stop offset="1" stop-color="#324D3A" stop-opacity="0"/>
</linearGradient>
<linearGradient id="paint49_linear_3592_52108" x1="199.512" y1="260.623" x2="199.512" y2="332.252" gradientUnits="userSpaceOnUse">
<stop stop-color="#304632"/>
<stop offset="1" stop-color="#323B33" stop-opacity="0"/>
</linearGradient>
<linearGradient id="paint50_linear_3592_52108" x1="198.607" y1="288.205" x2="198.607" y2="332.695" gradientUnits="userSpaceOnUse">
<stop stop-color="#1F1212"/>
<stop offset="1" stop-color="#5C3535" stop-opacity="0"/>
</linearGradient>
<clipPath id="clip0_3592_52108">
<rect width="820" height="517" fill="white"/>
</clipPath>
<clipPath id="clip1_3592_52108">
<rect width="25.2019" height="25.2019" fill="white" transform="translate(540.733 359.248) rotate(-1.70063)"/>
</clipPath>
</defs>
</svg>
