<svg width="16" height="19" viewBox="0 0 16 19" fill="none" xmlns="http://www.w3.org/2000/svg">
<path d="M14.8608 8.65607C14.8608 14.0349 9.35161 17.3487 8.20672 17.9798C8.1433 18.0148 8.07205 18.0332 7.99961 18.0332C7.92718 18.0332 7.85593 18.0148 7.79251 17.9798C6.64676 17.3487 1.13928 14.0349 1.13928 8.65607C1.13928 4.3681 3.71207 1.36652 8.00004 1.36652C12.288 1.36652 14.8608 4.3681 14.8608 8.65607Z" stroke="#4A4184" stroke-width="1.4" stroke-linecap="round" stroke-linejoin="round"/>
<path d="M4.5697 8.22726C4.5697 9.13705 4.93112 10.0096 5.57444 10.6529C6.21776 11.2962 7.09029 11.6576 8.00008 11.6576C8.90988 11.6576 9.78241 11.2962 10.4257 10.6529C11.069 10.0096 11.4305 9.13705 11.4305 8.22726C11.4305 7.31746 11.069 6.44493 10.4257 5.80161C9.78241 5.15829 8.90988 4.79688 8.00008 4.79688C7.09029 4.79688 6.21776 5.15829 5.57444 5.80161C4.93112 6.44493 4.5697 7.31746 4.5697 8.22726V8.22726Z" stroke="#4A4184" stroke-width="1.4" stroke-linecap="round" stroke-linejoin="round"/>
</svg>
