<svg width="20" height="19" viewBox="0 0 20 19" fill="none" xmlns="http://www.w3.org/2000/svg">
<path d="M12.2516 16.8852L12.2607 16.8916C13.0478 17.3927 13.9822 17.6103 14.9097 17.5085C15.8371 17.4066 16.7021 16.9914 17.3616 16.3314L17.9346 15.7584C18.0615 15.6316 18.1623 15.4809 18.231 15.3151C18.2997 15.1492 18.3351 14.9715 18.3351 14.792C18.3351 14.6125 18.2997 14.4348 18.231 14.2689C18.1623 14.1031 18.0615 13.9524 17.9346 13.8256L15.518 11.4108C15.3911 11.2838 15.2405 11.1831 15.0746 11.1144C14.9088 11.0457 14.7311 11.0103 14.5516 11.0103C14.3721 11.0103 14.1943 11.0457 14.0285 11.1144C13.8627 11.1831 13.712 11.2838 13.5851 11.4108C13.3289 11.667 12.9814 11.8109 12.6191 11.8109C12.2568 11.8109 11.9094 11.667 11.6531 11.4108L7.7892 7.54595C7.53305 7.28973 7.38916 6.94226 7.38916 6.57996C7.38916 6.21766 7.53305 5.8702 7.7892 5.61397C7.91616 5.48709 8.01689 5.33643 8.0856 5.1706C8.15432 5.00477 8.18969 4.82703 8.18969 4.64753C8.18969 4.46803 8.15432 4.29029 8.0856 4.12446C8.01689 3.95863 7.91616 3.80797 7.7892 3.68109L5.37354 1.26634C5.11732 1.0102 4.76985 0.866302 4.40755 0.866302C4.04526 0.866302 3.69779 1.0102 3.44157 1.26634L2.86771 1.83929C2.20786 2.49893 1.7928 3.36394 1.69111 4.29141C1.58942 5.21887 1.80719 6.15327 2.30843 6.94021L2.3139 6.94932C4.96108 10.8659 8.33452 14.2387 12.2516 16.8852V16.8852Z" stroke="#4A4184" stroke-width="1.4" stroke-linecap="round" stroke-linejoin="round"/>
</svg>
