<svg width="19" height="16" viewBox="0 0 19 16" fill="none" xmlns="http://www.w3.org/2000/svg">
<g id="Social Media Icon Square/Twitter">
<path id="Twitter" d="M12.8767 0.987006V0.983765H13.7207L14.029 1.04536C14.2346 1.08534 14.4213 1.13774 14.589 1.20258C14.7567 1.26741 14.9191 1.34306 15.0759 1.4295C15.2328 1.51594 15.3751 1.60401 15.5028 1.69369C15.6294 1.7823 15.743 1.87631 15.8437 1.97572C15.9432 2.07621 16.0985 2.10214 16.3095 2.05352C16.5205 2.00489 16.7477 1.93735 16.9912 1.85091C17.2346 1.76448 17.4754 1.66722 17.7135 1.55916C17.9515 1.4511 18.0965 1.38249 18.1485 1.35332C18.1993 1.32307 18.2264 1.30686 18.2296 1.30469L18.2328 1.29983L18.2491 1.29172L18.2653 1.28362L18.2815 1.27552L18.2978 1.26741L18.301 1.26255L18.3059 1.25931L18.3108 1.25607L18.314 1.2512L18.3302 1.24634L18.3465 1.2431L18.3432 1.26741L18.3383 1.29172L18.3302 1.31604L18.3221 1.34035L18.314 1.35656L18.3059 1.37277L18.2978 1.39708C18.2924 1.41329 18.287 1.43489 18.2815 1.46191C18.2761 1.48893 18.2247 1.59698 18.1273 1.78608C18.03 1.97518 17.9082 2.16698 17.7621 2.36148C17.6161 2.55598 17.4851 2.70293 17.3694 2.80235C17.2525 2.90284 17.1751 2.97307 17.1373 3.01306C17.0994 3.05411 17.0534 3.09193 16.9993 3.12652L16.9181 3.18L16.9019 3.18811L16.8857 3.19621L16.8824 3.20108L16.8776 3.20432L16.8727 3.20756L16.8694 3.21242L16.8532 3.22053L16.837 3.22863L16.8338 3.23349L16.8289 3.23673L16.824 3.23997L16.8208 3.24484L16.8175 3.2497L16.8126 3.25294L16.8078 3.25618L16.8045 3.26105H16.8857L17.3401 3.1638C17.6431 3.09896 17.9326 3.02063 18.2085 2.92877L18.6467 2.7829L18.6954 2.76669L18.7198 2.75859L18.736 2.75048L18.7522 2.74238L18.7685 2.73427L18.7847 2.72617L18.8171 2.72131L18.8496 2.71806V2.75048L18.8415 2.75372L18.8334 2.75859L18.8301 2.76345L18.8253 2.76669L18.8204 2.76993L18.8171 2.77479L18.8139 2.77966L18.809 2.7829L18.8042 2.78614L18.8009 2.791L18.7977 2.79586L18.7928 2.79911L18.7847 2.81531L18.7766 2.83152L18.7717 2.83476C18.7695 2.83801 18.7008 2.92984 18.5656 3.11031C18.4303 3.29184 18.3573 3.38368 18.3465 3.38585C18.3356 3.38909 18.3205 3.4053 18.301 3.43448C18.2826 3.46472 18.1679 3.58521 17.9569 3.79592C17.7459 4.00663 17.5393 4.1941 17.3369 4.35836C17.1335 4.52368 17.0307 4.72682 17.0285 4.96779C17.0253 5.20768 17.0128 5.47891 16.9912 5.78145C16.9695 6.08402 16.929 6.41087 16.8694 6.76206C16.8099 7.11325 16.718 7.51036 16.5935 7.95338C16.4691 8.3964 16.3176 8.82863 16.1391 9.25005C15.9605 9.67147 15.7739 10.0497 15.5791 10.3846C15.3843 10.7196 15.2058 11.0033 15.0435 11.2356C14.8812 11.4679 14.7162 11.6867 14.5484 11.892C14.3807 12.0973 14.1687 12.3286 13.9122 12.5857C13.6547 12.8418 13.514 12.9823 13.4902 13.0072C13.4653 13.0309 13.3593 13.1196 13.1721 13.273C12.986 13.4275 12.7858 13.582 12.5715 13.7365C12.3584 13.89 12.1625 14.018 11.984 14.1207C11.8054 14.2233 11.5901 14.3406 11.338 14.4724C11.087 14.6053 10.8153 14.7285 10.5232 14.842C10.231 14.9554 9.92265 15.0608 9.59803 15.158C9.27341 15.2553 8.95962 15.3309 8.65664 15.3849C8.35368 15.439 8.01012 15.4849 7.62598 15.5227L7.04979 15.5794V15.5875H5.99479V15.5794L5.85682 15.5713C5.76486 15.5659 5.68911 15.5605 5.62959 15.5551C5.57009 15.5497 5.34555 15.52 4.95601 15.466C4.56647 15.412 4.2608 15.3579 4.03897 15.3039C3.81716 15.2499 3.48712 15.1472 3.04889 14.9959C2.61066 14.8447 2.23572 14.6918 1.92409 14.5372C1.61355 14.3838 1.41878 14.2865 1.33978 14.2455C1.26187 14.2055 1.17423 14.1558 1.07684 14.0964L0.930764 14.0072L0.927534 14.0024L0.922648 13.9991L0.917779 13.9959L0.914533 13.991L0.898302 13.9829L0.882071 13.9748L0.878841 13.9699L0.873956 13.9667L0.869086 13.9635L0.86584 13.9586L0.86261 13.9537L0.857725 13.9505H0.849609V13.9181L0.86584 13.9213L0.882071 13.9262L0.95511 13.9343C1.0038 13.9397 1.13636 13.9478 1.35277 13.9586C1.56919 13.9694 1.79911 13.9694 2.04258 13.9586C2.28604 13.9478 2.53492 13.9235 2.78919 13.8857C3.04348 13.8478 3.34375 13.783 3.69001 13.6912C4.03627 13.5993 4.3544 13.4902 4.6444 13.3637C4.9333 13.2363 5.13888 13.1412 5.26117 13.0785C5.38235 13.0169 5.56738 12.9023 5.81625 12.7349L6.18956 12.4836L6.1928 12.4788L6.19767 12.4755L6.20256 12.4723L6.20579 12.4674L6.20903 12.4626L6.2139 12.4593L6.21879 12.4561L6.22202 12.4512L6.23825 12.4464L6.25448 12.4431L6.25772 12.4269L6.26259 12.4107L6.26748 12.4075L6.27071 12.4026L6.14086 12.3945C6.0543 12.3891 5.97044 12.3837 5.88928 12.3783C5.80813 12.3729 5.68099 12.3486 5.50786 12.3053C5.33474 12.2621 5.14809 12.1973 4.9479 12.1108C4.74772 12.0244 4.55295 11.9217 4.36359 11.8029C4.17424 11.684 4.03735 11.5851 3.95295 11.5063C3.86963 11.4284 3.76142 11.3182 3.62833 11.1756C3.49632 11.0319 3.38162 10.8844 3.28424 10.7331C3.18685 10.5818 3.0938 10.4073 3.00508 10.2096L2.87035 9.9146L2.86223 9.89029L2.85412 9.86597L2.84925 9.84976L2.846 9.83356L2.87035 9.8368L2.8947 9.84166L3.07323 9.86597C3.19227 9.88218 3.37893 9.88758 3.6332 9.88218C3.88749 9.87678 4.06332 9.86597 4.1607 9.84976C4.25809 9.83356 4.3176 9.82274 4.33924 9.81735L4.3717 9.80924L4.41228 9.80114L4.45286 9.79303L4.4561 9.78817L4.46097 9.78493L4.46586 9.78169L4.46909 9.77683L4.43662 9.76872L4.40416 9.76062L4.3717 9.75251L4.33924 9.74441L4.30678 9.73631C4.28514 9.73091 4.24728 9.7201 4.19316 9.70389C4.13906 9.68768 3.99299 9.62824 3.75493 9.5256C3.51689 9.42295 3.32752 9.32299 3.18685 9.22574C3.04583 9.12821 2.91137 9.02154 2.78433 8.90643C2.65772 8.78973 2.51869 8.63953 2.36719 8.45584C2.21571 8.27215 2.08046 8.05873 1.96142 7.81561C1.8424 7.57248 1.75313 7.34017 1.69361 7.11865C1.63433 6.89843 1.59522 6.67329 1.57677 6.446L1.54754 6.10562L1.56377 6.10886L1.58 6.11373L1.59623 6.12183L1.61246 6.12993L1.62869 6.13804L1.64492 6.14614L1.8965 6.2596C2.06423 6.33525 2.27252 6.40008 2.52139 6.4541C2.77027 6.50813 2.91904 6.53785 2.96773 6.54325L3.04077 6.55135H3.18685L3.18362 6.54649L3.17873 6.54325L3.17387 6.54001L3.17062 6.53514L3.16739 6.53028L3.1625 6.52704L3.15763 6.5238L3.15439 6.51894L3.13816 6.51083L3.12193 6.50273L3.1187 6.49787L3.11381 6.49462L3.10894 6.49138L3.1057 6.48652L3.08947 6.47842L3.07323 6.47031L3.07 6.46545C3.06676 6.46328 3.02022 6.4287 2.9304 6.36171C2.84167 6.29364 2.74862 6.20558 2.65123 6.09752C2.55385 5.98946 2.45646 5.876 2.35908 5.75714C2.26151 5.63801 2.17461 5.51056 2.09938 5.37624C2.02365 5.24118 1.94357 5.06935 1.85917 4.86082C1.77585 4.65335 1.71255 4.44426 1.66927 4.23355C1.626 4.02284 1.60165 3.81484 1.59623 3.60953C1.59082 3.40421 1.59623 3.22863 1.61246 3.08275C1.62869 2.93688 1.66115 2.77209 1.70984 2.5884C1.75854 2.40471 1.82888 2.21021 1.92084 2.00489L2.05881 1.69693L2.06692 1.67262L2.07504 1.64831L2.07992 1.64507L2.08315 1.64021L2.0864 1.63534L2.09127 1.6321L2.09615 1.63534L2.09938 1.64021L2.10263 1.64507L2.1075 1.64831L2.11238 1.65155L2.11561 1.65641L2.11886 1.66128L2.12373 1.66452L2.13185 1.68073L2.13996 1.69693L2.14485 1.70018L2.14808 1.70504L2.36719 1.94816C2.51327 2.11025 2.6864 2.29125 2.88658 2.49115C3.08677 2.69104 3.19768 2.79478 3.21931 2.80235C3.24096 2.81099 3.268 2.83583 3.30047 2.87691C3.33293 2.91689 3.44114 3.01252 3.62508 3.1638C3.80904 3.31507 4.0498 3.49067 4.34736 3.69057C4.64493 3.89047 4.97495 4.08767 5.33744 4.28218C5.69994 4.47668 6.08948 4.65226 6.50606 4.80895C6.92265 4.96564 7.21481 5.06828 7.38252 5.11691C7.55025 5.16553 7.83699 5.22766 8.24276 5.30331C8.64853 5.37895 8.95422 5.42758 9.1598 5.44918C9.36539 5.47079 9.50607 5.48322 9.5818 5.48646L9.69542 5.4897L9.69219 5.46539L9.6873 5.44108L9.65484 5.23847C9.6332 5.10341 9.62238 4.9143 9.62238 4.67118C9.62238 4.42805 9.64132 4.20384 9.67919 3.99853C9.71707 3.79322 9.77388 3.58521 9.84961 3.3745C9.92536 3.1638 9.99949 2.99468 10.072 2.86718C10.1456 2.74076 10.2419 2.5965 10.3609 2.43442C10.4799 2.27233 10.6341 2.10485 10.8235 1.93196C11.0128 1.75906 11.2292 1.60508 11.4727 1.47002C11.7162 1.33495 11.9407 1.23229 12.1463 1.16206C12.3519 1.09183 12.525 1.04589 12.6657 1.02429C12.8063 1.00268 12.8767 0.990248 12.8767 0.987006Z" fill="#6A71E5"/>
</g>
</svg>
