<svg width="21" height="16" viewBox="0 0 21 16" fill="none" xmlns="http://www.w3.org/2000/svg">
<path d="M11.2882 15.265L7.22605 15.189C5.9108 15.1626 4.59228 15.2154 3.30282 14.9413C1.34126 14.5318 1.20229 12.5239 1.05688 10.8397C0.856519 8.47181 0.934085 6.06099 1.31219 3.71292C1.52565 2.3954 2.36568 1.60923 3.66476 1.52368C8.05011 1.21321 12.4646 1.25 16.8403 1.39485C17.3024 1.40813 17.7677 1.4807 18.2234 1.56331C20.4727 1.96623 20.5275 4.24163 20.6733 6.15709C20.8187 8.09231 20.7573 10.0375 20.4794 11.9595C20.2564 13.5509 19.8298 14.8855 18.0294 15.0143C15.7737 15.1828 13.5697 15.3184 11.3076 15.2752C11.3077 15.265 11.2947 15.265 11.2882 15.265ZM8.90006 11.236C10.6 10.2386 12.2674 9.25778 13.9576 8.26706C12.2545 7.26965 10.5902 6.28886 8.90006 5.29814V11.236Z" fill="#6A71E5"/>
</svg>
